<?xml version="1.0" encoding="UTF-8" standalone="no"?>
<!-- Created with Inkscape (http://www.inkscape.org/) -->

<svg width="309.189mm" height="61.660542mm" viewBox="0 0 309.18899 61.660542" version="1.1" id="svg5" sodipodi:docname="mainlogo.svg" xml:space="preserve" inkscape:version="1.2 (dc2aedaf03, 2022-05-15)" inkscape:export-filename="logo.png" inkscape:export-xdpi="246.45119" inkscape:export-ydpi="246.45119" xmlns:inkscape="http://www.inkscape.org/namespaces/inkscape" xmlns:sodipodi="http://sodipodi.sourceforge.net/DTD/sodipodi-0.dtd" xmlns:xlink="http://www.w3.org/1999/xlink" xmlns="http://www.w3.org/2000/svg" xmlns:svg="http://www.w3.org/2000/svg"><sodipodi:namedview id="namedview7" pagecolor="#ffffff" bordercolor="#000000" borderopacity="0.25" inkscape:showpageshadow="2" inkscape:pageopacity="0.0" inkscape:pagecheckerboard="0" inkscape:deskcolor="#d1d1d1" inkscape:document-units="mm" showgrid="false" inkscape:zoom="0.98525794" inkscape:cx="829.22448" inkscape:cy="103.52619" inkscape:window-width="1920" inkscape:window-height="1012" inkscape:window-x="-8" inkscape:window-y="-8" inkscape:window-maximized="1" inkscape:current-layer="layer2" shape-rendering="crispEdges" /><defs id="defs2"><rect x="343.05737" y="451.65839" width="791.67084" height="150.21448" id="rect1558" /><rect x="353.207" y="288.24939" width="924.63098" height="129.91522" id="rect390" /><linearGradient inkscape:collect="always" id="linearGradient7120"><stop style="stop-color:#000000;stop-opacity:1;" offset="0" id="stop7116" /><stop style="stop-color:#00086a;stop-opacity:1;" offset="0.16467068" id="stop7124" /><stop style="stop-color:#28005b;stop-opacity:1;" offset="0.30988023" id="stop7126" /><stop style="stop-color:#64004e;stop-opacity:1;" offset="0.47080839" id="stop7128" /><stop style="stop-color:#930057;stop-opacity:1;" offset="0.62013471" id="stop7130" /><stop style="stop-color:#d12b0a;stop-opacity:1;" offset="0.85497755" id="stop7132" /><stop style="stop-color:#ffa12c;stop-opacity:1;" offset="1" id="stop7118" /></linearGradient><linearGradient inkscape:collect="always" id="AK"><stop style="stop-color:#ffca00;stop-opacity:1;" offset="0" id="stop4588" /><stop style="stop-color:#ff0000;stop-opacity:1;" offset="1" id="stop4590" /></linearGradient><linearGradient inkscape:collect="always" xlink:href="#AK" id="linearGradient4594" x1="120.506" y1="86.294861" x2="120.81414" y2="147.79103" gradientUnits="userSpaceOnUse" /><linearGradient inkscape:collect="always" xlink:href="#AK" id="linearGradient4678" x1="68.744019" y1="95.926582" x2="66.135262" y2="156.34857" gradientUnits="userSpaceOnUse" /><linearGradient inkscape:collect="always" xlink:href="#linearGradient7120" id="linearGradient7122" x1="97.302933" y1="77.369858" x2="97.840012" y2="158.73816" gradientUnits="userSpaceOnUse" /><filter style="color-interpolation-filters:sRGB" inkscape:label="Drop Shadow" id="filter7742" x="-0.19817462" y="-0.058126474" width="1.2952397" height="1.1428942"><feFlood flood-opacity="0.498039" flood-color="rgb(0,0,0)" result="flood" id="feFlood7732" /><feComposite in="flood" in2="SourceGraphic" operator="in" result="composite1" id="feComposite7734" /><feGaussianBlur in="composite1" stdDeviation="1" result="blur" id="feGaussianBlur7736" /><feOffset dx="-2.5" dy="1.1" result="offset" id="feOffset7738" /><feComposite in="SourceGraphic" in2="offset" operator="over" result="fbSourceGraphic" id="feComposite7740" /><feColorMatrix result="fbSourceGraphicAlpha" in="fbSourceGraphic" values="0 0 0 -1 0 0 0 0 -1 0 0 0 0 -1 0 0 0 0 1 0" id="feColorMatrix7756" /><feFlood id="feFlood7758" flood-opacity="0.498039" flood-color="rgb(0,0,0)" result="flood" in="fbSourceGraphic" /><feComposite in2="fbSourceGraphic" id="feComposite7760" in="flood" operator="in" result="composite1" /><feGaussianBlur id="feGaussianBlur7762" in="composite1" stdDeviation="1" result="blur" /><feOffset id="feOffset7764" dx="-2.5" dy="1.1" result="offset" /><feComposite in2="offset" id="feComposite7766" in="fbSourceGraphic" operator="over" result="composite2" /></filter><filter style="color-interpolation-filters:sRGB" inkscape:label="Drop Shadow" id="filter7754" x="-0.15379518" y="-0.066709313" width="1.2291234" height="1.1639937"><feFlood flood-opacity="0.498039" flood-color="rgb(0,0,0)" result="flood" id="feFlood7744" /><feComposite in="flood" in2="SourceGraphic" operator="in" result="composite1" id="feComposite7746" /><feGaussianBlur in="composite1" stdDeviation="1" result="blur" id="feGaussianBlur7748" /><feOffset dx="-2.5" dy="1.1" result="offset" id="feOffset7750" /><feComposite in="SourceGraphic" in2="offset" operator="over" result="fbSourceGraphic" id="feComposite7752" /><feColorMatrix result="fbSourceGraphicAlpha" in="fbSourceGraphic" values="0 0 0 -1 0 0 0 0 -1 0 0 0 0 -1 0 0 0 0 1 0" id="feColorMatrix7768" /><feFlood id="feFlood7770" flood-opacity="0.498039" flood-color="rgb(0,0,0)" result="flood" in="fbSourceGraphic" /><feComposite in2="fbSourceGraphic" id="feComposite7772" in="flood" operator="in" result="composite1" /><feGaussianBlur id="feGaussianBlur7774" in="composite1" stdDeviation="1" result="blur" /><feOffset id="feOffset7776" dx="-2.5" dy="1.1" result="offset" /><feComposite in2="offset" id="feComposite7778" in="fbSourceGraphic" operator="over" result="composite2" /></filter><filter style="color-interpolation-filters:sRGB" inkscape:label="Drop Shadow" id="filter8198" x="-0.090666601" y="-0.089114899" width="1.1298026" height="1.2499088"><feFlood flood-opacity="0.498039" flood-color="rgb(0,0,0)" result="flood" id="feFlood8188" /><feComposite in="flood" in2="SourceGraphic" operator="out" result="composite1" id="feComposite8190" /><feGaussianBlur in="composite1" stdDeviation="1" result="blur" id="feGaussianBlur8192" /><feOffset dx="-2.9" dy="-1.2" result="offset" id="feOffset8194" /><feComposite in="offset" in2="SourceGraphic" operator="atop" result="fbSourceGraphic" id="feComposite8196" /><feColorMatrix result="fbSourceGraphicAlpha" in="fbSourceGraphic" values="0 0 0 -1 0 0 0 0 -1 0 0 0 0 -1 0 0 0 0 1 0" id="feColorMatrix8427" /><feFlood id="feFlood8429" flood-opacity="0.498039" flood-color="rgb(0,0,0)" result="flood" in="fbSourceGraphic" /><feComposite in2="fbSourceGraphic" id="feComposite8431" in="flood" operator="out" result="composite1" /><feGaussianBlur id="feGaussianBlur8433" in="composite1" stdDeviation="1" result="blur" /><feOffset id="feOffset8435" dx="-3.4202" dy="6.02606" result="offset" /><feComposite in2="fbSourceGraphic" id="feComposite8437" in="offset" operator="atop" result="composite2" /></filter><linearGradient inkscape:collect="always" xlink:href="#linearGradient7120" id="linearGradient1362" x1="659.94403" y1="221.62393" x2="657.59875" y2="466.96127" gradientUnits="userSpaceOnUse" /></defs><g id="layer2" inkscape:label="BG" inkscape:groupmode="layer" transform="translate(0.40380614,-77.532953)"><path id="path6600" style="fill:url(#linearGradient7122);fill-opacity:1;fill-rule:nonzero;stroke-width:0.276246;stroke-dasharray:none;filter:url(#filter8198)" d="m 145.43621,84.258081 c -1.19,-0.02832 -2.42772,0.162214 -3.72174,0.556506 -0.1801,0.06161 -0.36021,0.1221 -0.54002,0.184754 -0.0222,0.0077 -0.0534,0.01997 -0.0661,0.02583 -0.41454,0.108071 -0.92799,0.247965 -1.02268,0.301559 0.26051,-0.02659 0.0616,-0.0096 -0.50798,0.140952 -0.13677,0.03613 -0.27329,0.07451 -0.40979,0.11175 0.0613,-0.0075 0.23982,-0.05092 0.18397,-0.02247 -0.12224,0.06228 -0.49629,0.051 -0.004,0.04605 0.26619,0.03122 0.15748,0.0137 -0.33435,0.01291 -0.42173,-5.74e-4 -0.84383,-0.0015 -1.26555,-0.0028 -0.12827,-2.87e-4 -0.2562,-0.0011 -0.38447,-0.0018 -0.94655,-0.0032 -1.89382,-0.01315 -2.83962,0.03538 -1.75813,0.125718 -3.49774,0.443949 -5.14181,1.161308 -0.77658,0.350363 -1.63825,0.762861 -2.32854,1.123681 -0.0138,0.0019 -0.0276,0.0038 -0.0413,0.0057 0.0123,0.0023 0.0118,0.0026 0.0222,0.0044 -0.0117,0.0061 -0.0266,0.013 -0.0382,0.01909 -0.0942,-0.0033 -0.21467,-0.0089 -0.45217,-0.009 -0.61609,-6.3e-5 -1.23237,1.21e-4 -1.84846,0 -0.21658,-7.2e-5 -0.433,-4.76e-4 -0.64958,-5.62e-4 -0.77135,-4.22e-4 -1.54271,-0.0014 -2.31407,-0.0023 -0.0126,-0.02684 -0.0257,-0.05346 -0.0382,-0.0803 -0.0214,-0.04573 -0.0875,0.03908 -0.13126,0.05839 -0.0203,0.0075 -0.0407,0.01442 -0.061,0.0219 -0.20154,-2.09e-4 -0.40308,-3.53e-4 -0.60462,-5.62e-4 -0.97114,2.89e-4 -1.94239,0.0036 -2.913,0.04267 -1.49556,0.07153 -2.99401,0.190858 -4.45864,0.547521 -1.02843,0.217477 -1.73143,0.409526 -2.50993,0.607609 -1.44993,0.420869 -2.89969,0.893796 -4.19612,1.740837 -0.32622,0.210156 -0.65203,0.419915 -0.97824,0.630072 0.0726,-0.04574 0.28857,-0.185538 0.21756,-0.137022 -0.25691,0.175492 -0.52208,0.33725 -0.77566,0.51832 -0.25038,0.155707 -0.41254,0.254758 -0.76481,0.477888 -0.49166,0.342173 -0.94665,0.647097 -1.44746,0.988346 -0.0321,0.01992 -0.0644,0.03932 -0.0966,0.05896 -0.1403,0.08819 -0.19525,0.125972 -0.3023,0.194301 -0.0257,0.0039 -0.0513,0.008 -0.077,0.01179 -0.78504,0.165256 -1.56236,0.358607 -2.33112,0.584023 -0.19171,-0.100689 -0.381215,-0.186613 -0.558105,-0.212832 -0.86546,-0.34773 -1.30164,-0.546697 -2.343525,-0.77776 -1.65611,-0.367282 -3.35011,-0.344055 -5.00744,-0.0219 -1.39667,0.327664 -2.75088,0.790479 -4.03903,1.468481 -0.58005,0.312925 -1.1569,0.632683 -1.72961,0.959707 -0.915,0.497473 -1.96496,1.046794 -2.91352,1.732974 -0.31509,0.04054 -0.62994,0.08251 -0.94516,0.121859 -1.64014,0.226872 -3.27243,0.507891 -4.90668,0.773831 -0.51279,0.03616 -1.0206,0.0836 -1.34669,0.160605 -0.15766,0.03724 -0.32885,0.08376 -0.49351,0.125229 -0.14648,0.0218 -0.29266,0.0452 -0.43925,0.06626 -1.62679,-0.641716 -3.27806,-1.081723 -5.04155,-1.033832 -0.83801,-0.004 -1.67629,-0.01134 -2.51406,0.01629 -1.8557,0.08512 -3.7051,0.336269 -5.45548,1.052364 -1.32295,0.603071 -2.62313,1.265742 -3.80338,2.163132 -0.77081,0.51852 -1.52663,1.05916 -2.29289,1.58472 -1.47336,1.00757 -2.94609,2.0232 -4.17494,3.38228 -1.16929,1.23544 -2.35739,2.46095 -3.3755,3.85004 -0.0489,0.0678 -0.14964,0.11721 -0.14676,0.20329 4.7e-4,0.0173 0.0061,0.0192 0.01447,0.0124 -0.49118,0.51664 -1.01048,1.00154 -1.49707,1.5235 -0.64195,0.70546 -1.33239,1.34653 -2.05259,1.94637 -0.79275,0.71718 -1.55219,1.46337 -2.26756,2.26983 -0.21236,0.18517 -0.32214,0.27852 -0.48059,0.42117 -0.82687,0.7444 -1.57927,1.58547 -2.27376,2.47368 -0.58927,0.80867 -1.18318,1.61542 -1.82728,2.37371 -0.32535,0.39595 -0.64066,0.80801 -0.97669,1.19332 -0.21516,0.24671 -0.45494,0.46814 -0.66042,0.7244 -0.0221,0.0276 0.0553,-0.0416 0.0832,-0.0624 -5.80395,5.40607 -4.54241,12.74389 -0.47749,16.61601 0.009,0.0525 0.01976,0.10471 0.0279,0.15724 0.68422,0.96575 1.24988,2.04697 2.05311,2.89766 1.58276,1.67626 3.18019,2.29513 4.88549,2.91674 0.51241,0.22214 1.64209,0.69857 1.83089,0.77046 1.26834,0.53438 2.61185,0.81709 3.95377,1.02203 0.53831,0.0624 1.07807,0.0995 1.6185,0.12243 0.42562,0.20036 0.86146,0.37371 1.32085,0.4807 0.72774,0.23743 1.46268,0.45875 2.21537,0.58121 0.34819,0.0566 0.69728,0.10439 1.04645,0.15331 0.0135,0.002 0.04904,0.0111 0.04134,-0.001 -0.01,-0.0156 -0.03426,-0.009 -0.05116,-0.0146 -0.0854,-0.0207 -0.17129,-0.0393 -0.25631,-0.0618 -0.0403,-0.0108 -0.15967,-0.0475 -0.11938,-0.0371 0.72071,0.18631 1.44391,0.37129 2.18385,0.44306 1.05193,0.16388 2.11117,0.27371 3.175,0.24036 0.6341,-1.1e-4 1.26812,-2.9e-4 1.90221,-10e-4 0.69808,-0.001 1.39637,-0.003 2.09444,-0.004 0.30026,3.8e-4 0.6025,0.008 0.90434,0.0119 0.02094,0.0139 0.0756,0.045 0.08217,0.0516 1.55396,0.95974 3.17113,1.789 4.93303,2.19122 0.43393,0.0784 0.86567,0.17192 1.30173,0.23472 1.78558,0.25715 3.59807,0.0385 5.32991,-0.45823 2.2053,-0.82225 1.727,-0.7391 2.83703,-1.22645 1.35021,-0.6767 2.62651,-1.43854 3.79254,-2.44952 0.0454,-0.0395 -0.09647,0.0705 -0.1447,0.10552 -0.43757,0.27811 -0.09283,0.049 0.28319,-0.20722 1.08182,-0.0186 2.16501,-0.0649 3.23598,-0.24485 1.14616,-0.19566 2.28856,-0.42642 3.42408,-0.68229 1.48759,-0.44601 2.95577,-0.96461 4.33668,-1.72624 1.46829,-0.74242 2.89301,-1.57765 4.232815,-2.57025 0.15945,-0.11819 0.45016,-0.30887 0.55397,-0.38748 -0.0231,0.005 -0.0552,0.0144 -0.0873,0.0236 -0.0899,0.046 -0.2192,0.11529 -0.47853,0.26112 -0.0315,0.0178 0.25086,-0.14177 0.46509,-0.2572 -0.0812,0.0237 -0.15604,0.0458 -0.10955,0.0242 0.0955,-0.0445 0.19315,-0.0828 0.29197,-0.11849 0.0244,-0.0111 0.0444,-0.0194 0.0393,-0.0129 0.589335,-0.20659 1.223805,-0.29473 1.779735,-0.60256 0.22057,-0.0819 0.437,-0.17723 0.65784,-0.25832 0.21002,-0.0772 0.32376,-0.11761 0.38241,-0.13982 0.67604,-0.0339 1.36701,-0.0125 2.05155,-0.0168 1.08516,0.002 2.16995,0.005 3.2551,-5.6e-4 1.58447,-0.0146 3.1739,-0.0337 4.747,-0.26393 1.53608,-0.28291 3.04724,-0.66736 4.5036,-1.28149 -0.24967,0.0645 -0.058,0.0181 0.41909,-0.16173 0.77146,-0.29081 1.54749,-0.56536 2.29909,-0.9159 0.8519,-0.41567 1.47858,-0.80497 2.24224,-1.15849 0.96563,-0.45512 1.91776,-0.94116 2.88096,-1.40109 1.33216,-0.67357 2.64798,-1.3886 3.84421,-2.32599 1.0223,-0.80941 1.62597,-1.30633 2.59519,-2.22827 -0.41225,0.3703 -0.0868,0.0807 0.51883,-0.50654 0.0175,-0.0169 0.0683,-0.0689 0.0486,-0.0549 -0.045,0.0317 -0.16466,0.14949 -0.12558,0.10951 1.45063,-1.48417 0.71039,-0.62461 1.72496,-1.87225 0.68644,-0.99483 1.08667,-1.60904 1.53686,-2.40235 0.12904,-0.23019 0.25785,-0.46065 0.38706,-0.69072 0.31246,-0.47135 0.62845,-0.93948 0.90433,-1.43928 0.084,-0.15382 0.17059,-0.30625 0.25219,-0.4616 0.0455,-0.0866 -0.17559,0.25613 -0.0563,0.064 0.10123,-0.16312 0.20762,-0.32295 0.31006,-0.48519 0.0512,-0.0811 0.12602,-0.15035 0.15089,-0.24484 0.002,-0.006 -0.002,-10e-4 -0.002,-0.004 0.25681,-0.3511 0.52472,-0.6932 0.7674,-1.05631 0.14693,-0.13438 0.31139,-0.28362 0.42995,-0.37736 0.18259,-0.14434 0.36594,-0.28791 0.5488,-0.43184 0.56298,-0.46097 0.1205,-0.08 -0.0568,-0.0152 -0.42373,0.15471 1.19994,-0.70611 0.84852,-0.50091 0.87006,-0.444 1.72579,-0.91598 2.58073,-1.39267 0.8795,-0.51457 1.79803,-0.95273 2.65565,-1.51284 0.45823,-0.30453 0.93177,-0.58355 1.37511,-0.9131 1.75167,-1.3021 2.60151,-2.54873 3.75067,-4.37736 0.26089,-0.49267 0.41373,-0.78298 0.70797,-1.34999 0.005,-0.008 0.008,-0.0158 0.014,-0.027 0.67236,-1.25567 1.26471,-2.55666 1.69499,-3.93542 0.0897,-0.3324 0.17946,-0.66493 0.26923,-0.99734 0.005,-0.025 0.0107,-0.0498 0.016,-0.0747 0.16034,-0.38779 0.31149,-0.77997 0.45321,-1.17647 0.23632,-0.42246 0.46852,-0.84959 0.64802,-1.29383 0.56118,-1.23025 1.10628,-2.47778 1.45056,-3.804008 0.40698,-1.624198 0.74775,-3.629284 0.47594,-5.328646 -0.15203,-0.950496 -0.41714,-1.875696 -0.62581,-2.813418 -0.69387,-1.211647 -1.13373,-2.647124 -2.08152,-3.63498 -2.25435,-2.349676 -4.64255,-3.47216 -7.26054,-3.534462 z M 99.466405,141.54904 c -0.013,0.004 -0.0263,0.008 -0.0393,0.0129 -0.0383,0.0176 -0.10385,0.0521 -0.18242,0.0943 0.005,-0.001 0.008,-0.002 0.0134,-0.004 0.11353,-0.0581 0.14528,-0.0674 0.0873,-0.0235 0.004,-9.4e-4 0.0124,-0.003 0.016,-0.004 0.0689,-0.0452 0.0985,-0.0671 0.1049,-0.0752 z m 5.051375,-49.17248 c 0.011,-0.0077 0.0215,-0.01419 0.0326,-0.0219 -0.72764,0.463233 -0.46442,0.295447 -0.0326,0.0219 z m 48.41358,12.01683 c 0.0165,-0.0481 -0.0468,0.14369 -0.0713,0.19149 0.0227,-0.0643 0.0491,-0.12694 0.0713,-0.19149 z m -0.30024,0.63064 c -0.0148,0.0294 -0.0288,0.0594 -0.0439,0.0886 -0.0282,0.0546 -0.12323,0.2116 -0.0935,0.1578 0.0449,-0.0815 0.0916,-0.16476 0.13746,-0.24653 z m -0.38654,1.12986 c -0.0476,0.18088 -0.10484,0.35629 -0.21239,0.49866 0.0744,-0.16456 0.14125,-0.3326 0.21239,-0.49866 z M 48.88501,109.6816 c 0.0482,-0.0213 -0.06558,0.0881 -0.10284,0.12748 -0.0094,0.009 -0.01948,0.0192 -0.02894,0.0292 0.02801,-0.0271 0.08585,-0.13636 0.13178,-0.15668 z m 88.60956,12.10949 c -0.13895,0.16427 -0.40399,0.48282 -0.21135,0.23305 -0.14795,0.11031 0.002,-0.0395 0.21135,-0.23305 z m -2.31768,3.64397 c -0.0168,0.0289 -0.0237,0.0421 -0.0362,0.0629 -0.0361,0.06 -0.15695,0.23031 -0.11885,0.17185 0.0512,-0.0787 0.10328,-0.15653 0.15503,-0.23474 z m -33.00522,15.12058 c -0.10962,0.0201 -0.24066,0.0393 -0.34055,0.0219 0.11251,-0.0109 0.22695,-0.015 0.34055,-0.0219 z m -37.54964,8.15666 c -0.02754,-0.008 0.03225,0.007 0.06873,0.0163 0.006,0.003 0.0115,0.006 0.01757,0.009 -0.02477,-0.007 -0.07273,-0.022 -0.0863,-0.0264 z" transform="matrix(0.60498677,0,0,0.60498677,-13.481596,38.587302)" /><g aria-label="Abhineet Kelley" transform="matrix(0.34807756,0,0,0.34807756,-31.601457,-21.325716)" id="text388" style="font-size:96px;font-family:'Segoe UI';-inkscape-font-specification:'Segoe UI';white-space:pre;shape-inside:url(#rect390);display:inline;fill:url(#linearGradient1362)"><path d="m 405.61328,374.72242 -7.6875,-20.90625 h -29.15625 l -7.6875,20.90625 h -5.10937 l 25.35937,-67.21875 h 4.40625 l 25.07813,67.21875 z m -20.625,-56.25 q -0.51562,-1.40625 -0.84375,-2.76562 -0.32812,-1.17188 -0.70312,-2.34375 h -0.1875 q -0.79688,3.09375 -1.54688,5.01562 l -11.29687,31.17188 h 25.92187 z" style="font-weight:300;-inkscape-font-specification:'Segoe UI Light'" id="path248" /><path d="m 425.76953,366.19117 h -0.1875 v 8.53125 h -4.3125 v -71.0625 h 4.3125 v 32.95313 h 0.1875 q 2.57813,-5.29688 7.35938,-8.15625 4.82812,-2.90625 10.59375,-2.90625 9.14062,0 14.25,6.32812 5.15625,6.28125 5.15625,17.10938 0,12.04687 -5.95313,19.5 -5.95312,7.40625 -15.46875,7.40625 -10.78125,0 -15.9375,-9.70313 z m -0.1875,-17.85937 v 6.04687 q 0,7.21875 4.54688,12.42188 4.54687,5.15625 11.95312,5.15625 7.35938,0 11.95313,-6.28125 4.59375,-6.32813 4.59375,-16.59375 0,-9 -4.21875,-14.29688 -4.21875,-5.29687 -11.25,-5.29687 -8.39063,0 -12.98438,5.625 -4.59375,5.625 -4.59375,13.21875 z" style="font-weight:300;-inkscape-font-specification:'Segoe UI Light'" id="path250" /><path d="m 507.66016,374.72242 v -28.78125 q 0,-8.53125 -3.09375,-12.46875 -3.09375,-3.98437 -9.65625,-3.98437 -6.1875,0 -10.875,4.82812 -4.6875,4.82813 -4.6875,13.82813 v 26.57812 h -4.3125 v -71.0625 h 4.3125 v 31.6875 h 0.1875 q 5.67187,-9.79687 16.5,-9.79687 7.78125,0 11.85937,5.01562 4.07813,5.01563 4.07813,14.39063 v 29.76562 z" style="font-weight:300;-inkscape-font-specification:'Segoe UI Light'" id="path252" /><path d="m 528.51953,314.62867 q -1.40625,0 -2.48437,-1.03125 -1.07813,-1.03125 -1.07813,-2.625 0,-1.54687 1.07813,-2.48437 1.125,-0.98438 2.48437,-0.98438 1.45313,0 2.53125,0.9375 1.125,0.9375 1.125,2.53125 0,1.5 -1.07812,2.57813 -1.07813,1.07812 -2.57813,1.07812 z m -2.10937,60.09375 v -48 h 4.3125 v 48 z" style="font-weight:300;-inkscape-font-specification:'Segoe UI Light'" id="path254" /><path d="m 578.72266,374.72242 v -27.9375 q 0,-17.29687 -12.46875,-17.29687 -6.9375,0 -11.39063,5.10937 -4.45312,5.0625 -4.45312,12.5625 v 27.5625 h -4.3125 v -48 h 4.3125 v 8.71875 h 0.1875 q 5.25,-9.89062 16.40625,-9.89062 7.78125,0 11.90625,5.20312 4.125,5.15625 4.125,14.76563 v 29.20312 z" style="font-weight:300;-inkscape-font-specification:'Segoe UI Light'" id="path256" /><path d="m 598.50391,350.90992 q 0,9.89063 4.54687,15.46875 4.59375,5.57813 12.5625,5.57813 8.0625,0 15.75,-5.95313 v 4.59375 q -7.45312,5.29688 -16.64062,5.29688 -9.28125,0 -15,-6.65625 -5.71875,-6.65625 -5.71875,-18.79688 0,-10.5 5.95312,-17.67187 6,-7.21875 15.5625,-7.21875 8.95313,0 13.73438,6.28125 4.78125,6.28125 4.78125,17.15625 v 1.92187 z m 31.03125,-3.9375 q -0.28125,-8.29687 -3.98438,-12.89062 -3.70312,-4.59375 -10.21875,-4.59375 -6.75,0 -11.20312,4.54687 -4.40625,4.5 -5.4375,12.9375 z" style="font-weight:300;-inkscape-font-specification:'Segoe UI Light'" id="path258" /><path d="m 646.97266,350.90992 q 0,9.89063 4.54687,15.46875 4.59375,5.57813 12.5625,5.57813 8.0625,0 15.75,-5.95313 v 4.59375 q -7.45312,5.29688 -16.64062,5.29688 -9.28125,0 -15,-6.65625 -5.71875,-6.65625 -5.71875,-18.79688 0,-10.5 5.95312,-17.67187 6,-7.21875 15.5625,-7.21875 8.95313,0 13.73438,6.28125 4.78125,6.28125 4.78125,17.15625 v 1.92187 z m 31.03125,-3.9375 q -0.28125,-8.29687 -3.98438,-12.89062 -3.70312,-4.59375 -10.21875,-4.59375 -6.75,0 -11.20312,4.54687 -4.40625,4.5 -5.4375,12.9375 z" style="font-weight:300;-inkscape-font-specification:'Segoe UI Light'" id="path260" /><path d="m 713.39453,374.06617 q -3.375,1.59375 -6.32812,1.59375 -10.64063,0 -10.64063,-12.75 v -32.25 h -8.625 v -3.9375 h 8.625 v -12.46875 q 1.03125,-0.375 2.15625,-0.75 1.125,-0.32812 2.15625,-0.70312 v 13.92187 h 12.65625 v 3.9375 h -12.65625 v 31.6875 q 0,4.96875 1.54688,7.21875 1.59375,2.20313 5.34375,2.20313 2.67187,0 5.76562,-1.73438 z" style="font-weight:300;-inkscape-font-specification:'Segoe UI Light'" id="path262" /><path d="m 784.73828,374.72242 -28.64062,-32.15625 q -0.79688,-0.89062 -1.125,-1.54687 h -0.1875 v 33.70312 h -4.64063 v -67.21875 h 4.64063 v 31.6875 h 0.1875 q 0.5625,-0.98437 1.21875,-1.64062 l 27.1875,-30.04688 h 6.04687 l -29.48437,32.57813 31.3125,34.64062 z" style="font-weight:300;-inkscape-font-specification:'Segoe UI Light'" id="path264" /><path d="m 798.89453,350.90992 q 0,9.89063 4.54688,15.46875 4.59375,5.57813 12.5625,5.57813 8.0625,0 15.75,-5.95313 v 4.59375 q -7.45313,5.29688 -16.64063,5.29688 -9.28125,0 -15,-6.65625 -5.71875,-6.65625 -5.71875,-18.79688 0,-10.5 5.95313,-17.67187 6,-7.21875 15.5625,-7.21875 8.95312,0 13.73437,6.28125 4.78125,6.28125 4.78125,17.15625 v 1.92187 z m 31.03125,-3.9375 q -0.28125,-8.29687 -3.98437,-12.89062 -3.70313,-4.59375 -10.21875,-4.59375 -6.75,0 -11.20313,4.54687 -4.40625,4.5 -5.4375,12.9375 z" style="font-weight:300;-inkscape-font-specification:'Segoe UI Light'" id="path266" /><path d="m 846.33203,374.72242 v -71.0625 h 4.3125 v 71.0625 z" style="font-weight:300;-inkscape-font-specification:'Segoe UI Light'" id="path268" /><path d="m 866.01953,374.72242 v -71.0625 h 4.3125 v 71.0625 z" style="font-weight:300;-inkscape-font-specification:'Segoe UI Light'" id="path270" /><path d="m 886.73828,350.90992 q 0,9.89063 4.54688,15.46875 4.59375,5.57813 12.5625,5.57813 8.0625,0 15.75,-5.95313 v 4.59375 q -7.45313,5.29688 -16.64063,5.29688 -9.28125,0 -15,-6.65625 -5.71875,-6.65625 -5.71875,-18.79688 0,-10.5 5.95313,-17.67187 6,-7.21875 15.5625,-7.21875 8.95312,0 13.73437,6.28125 4.78125,6.28125 4.78125,17.15625 v 1.92187 z m 31.03125,-3.9375 q -0.28125,-8.29687 -3.98437,-12.89062 -3.70313,-4.59375 -10.21875,-4.59375 -6.75,0 -11.20313,4.54687 -4.40625,4.5 -5.4375,12.9375 z" style="font-weight:300;-inkscape-font-specification:'Segoe UI Light'" id="path272" /><path d="m 945.89453,384.5193 q -2.625,6.46875 -5.8125,9.60937 -3.1875,3.14063 -8.20312,3.14063 -2.10938,0 -3.75,-0.65625 v -4.3125 q 1.6875,0.65625 3.9375,0.65625 5.76562,0 9.09375,-7.96875 l 4.45312,-10.64063 -18.1875,-47.625 h 4.82813 l 14.48437,39.09375 q 0.46875,1.26563 0.65625,1.92188 0.1875,0.89062 0.42188,1.59375 h 0.1875 l 1.125,-3.23438 15.46875,-39.375 h 4.6875 z" style="font-weight:300;-inkscape-font-specification:'Segoe UI Light'" id="path274" /></g><g aria-label="W E B   D E S I G N S" transform="matrix(0.22834585,0,0,0.22834585,12.760214,11.989406)" id="text1556" style="font-size:66.6667px;font-family:'Segoe UI';-inkscape-font-specification:'Segoe UI';white-space:pre;shape-inside:url(#rect1558);display:inline"><path d="m 404.51501,465.02882 -13.1836,46.67971 h -6.41277 l -9.60287,-34.1146 q -0.61849,-2.18099 -0.7487,-4.75261 h -0.1302 q -0.19532,2.40886 -0.84636,4.6875 l -9.66797,34.17971 h -6.34766 L 343.903,465.02882 h 6.02213 l 9.92839,35.80731 q 0.61849,2.24609 0.78126,4.6875 h 0.16276 q 0.16276,-1.72526 1.00911,-4.6875 l 10.31902,-35.80731 h 5.24088 l 9.89584,36.06773 q 0.52084,1.85546 0.78125,4.36198 h 0.13021 q 0.13021,-1.69271 0.87891,-4.49219 l 9.53776,-35.93752 z" id="path227" /><path d="m 454.44993,511.70853 h -24.7396 v -46.67971 h 23.69793 v 4.94792 h -18.22917 v 15.52735 h 16.86198 v 4.91537 h -16.86198 v 16.34115 h 19.27084 z" id="path229" /><path d="m 481.69603,511.70853 v -46.67971 h 13.28125 q 6.0547,0 9.60287,2.96224 3.54818,2.96224 3.54818,7.71485 0,3.97135 -2.14844,6.90104 -2.14843,2.92969 -5.92448,4.16667 v 0.13021 q 4.72006,0.55338 7.55209,3.58073 2.83203,2.99479 2.83203,7.8125 0,5.98959 -4.29687,9.70053 -4.29688,3.71094 -10.83985,3.71094 z m 5.46875,-41.73179 v 15.07162 h 5.59896 q 4.49219,0 7.06381,-2.14844 2.57161,-2.18099 2.57161,-6.11979 0,-6.80339 -8.95182,-6.80339 z m 0,19.98699 v 16.79688 h 7.42188 q 4.81771,0 7.45443,-2.27865 2.66927,-2.27864 2.66927,-6.25 0,-8.26823 -11.26302,-8.26823 z" id="path231" /><path d="m 574.69739,511.70853 v -46.67971 h 12.89063 q 24.67449,0 24.67449,22.75392 0,10.80729 -6.86849,17.38282 -6.83594,6.54297 -18.32684,6.54297 z m 5.46875,-41.73179 v 36.78387 h 6.96615 q 9.17969,0 14.29037,-4.91537 5.11068,-4.91536 5.11068,-13.9323 0,-17.9362 -19.07553,-17.9362 z" id="path233" /><path d="m 664.44353,511.70853 h -24.7396 v -46.67971 h 23.69793 v 4.94792 h -18.22918 v 15.52735 h 16.86199 v 4.91537 h -16.86199 v 16.34115 h 19.27085 z" id="path235" /><path d="m 689.50866,509.82051 v -6.44532 q 1.10677,0.97657 2.63672,1.75782 1.5625,0.78125 3.25521,1.33463 1.72526,0.52084 3.45052,0.8138 1.72526,0.29297 3.19011,0.29297 5.04557,0 7.51953,-1.85547 2.50651,-1.88802 2.50651,-5.40365 0,-1.88802 -0.84635,-3.28776 -0.8138,-1.39974 -2.27865,-2.53906 -1.46484,-1.17188 -3.48307,-2.21354 -1.98568,-1.07422 -4.29688,-2.2461 -2.44141,-1.23698 -4.55729,-2.50651 -2.11589,-1.26953 -3.67839,-2.79948 -1.5625,-1.52995 -2.47396,-3.45052 -0.87891,-1.95313 -0.87891,-4.5573 0,-3.1901 1.39974,-5.53386 1.39974,-2.3763 3.67839,-3.90625 2.27865,-1.52995 5.17578,-2.27864 2.92969,-0.7487 5.95704,-0.7487 6.90104,0 10.0586,1.66015 v 6.15235 q -4.13412,-2.86458 -10.61199,-2.86458 -1.79036,0 -3.58073,0.39062 -1.79036,0.35807 -3.1901,1.20443 -1.39974,0.84635 -2.27865,2.18099 -0.87891,1.33464 -0.87891,3.25521 0,1.79037 0.65104,3.09245 0.6836,1.30208 1.98568,2.3763 1.30209,1.07422 3.15756,2.08334 1.88802,1.00911 4.32943,2.21354 2.50651,1.23698 4.7526,2.60417 2.2461,1.36719 3.93881,3.02734 1.69271,1.66016 2.66927,3.67839 1.00911,2.01823 1.00911,4.6224 0,3.45052 -1.36718,5.85938 -1.33464,2.3763 -3.64584,3.8737 -2.27865,1.49739 -5.27344,2.14844 -2.99479,0.68359 -6.31511,0.68359 -1.10677,0 -2.73437,-0.19531 -1.62761,-0.16276 -3.32032,-0.52084 -1.69271,-0.32552 -3.22266,-0.8138 -1.49739,-0.52083 -2.40885,-1.13932 z" id="path237" /><path d="m 750.83681,511.70853 h -5.46875 v -46.67971 h 5.46875 z" id="path239" /><path d="m 816.26653,508.51842 q -7.03125,3.97136 -15.62501,3.97136 -9.99349,0 -16.17839,-6.44532 -6.15235,-6.44531 -6.15235,-17.0573 0,-10.83985 6.83594,-17.77344 6.8685,-6.96615 17.38283,-6.96615 7.61719,0 12.79297,2.47396 v 6.05469 q -5.66406,-3.58073 -13.41146,-3.58073 -7.84506,0 -12.85808,5.40365 -5.01303,5.40364 -5.01303,13.9974 0,8.85417 4.65495,13.9323 4.65495,5.04557 12.63022,5.04557 5.46875,0 9.47266,-2.18099 v -13.08594 h -10.22136 v -4.94792 h 15.69011 z" id="path241" /><path d="m 882.99834,511.70853 h -6.70573 l -24.02345,-37.20705 q -0.91146,-1.39974 -1.49739,-2.92969 h -0.19532 q 0.26042,1.4974 0.26042,6.41276 v 33.72398 h -5.46875 v -46.67971 h 7.09635 l 23.37241,36.62111 q 1.46485,2.27865 1.88802,3.125 h 0.13021 q -0.32552,-2.01823 -0.32552,-6.86849 v -32.87762 h 5.46875 z" id="path243" /><path d="m 911.31869,509.82051 v -6.44532 q 1.10677,0.97657 2.63672,1.75782 1.5625,0.78125 3.25521,1.33463 1.72526,0.52084 3.45052,0.8138 1.72526,0.29297 3.19011,0.29297 5.04557,0 7.51953,-1.85547 2.50651,-1.88802 2.50651,-5.40365 0,-1.88802 -0.84635,-3.28776 -0.8138,-1.39974 -2.27865,-2.53906 -1.46484,-1.17188 -3.48307,-2.21354 -1.98568,-1.07422 -4.29688,-2.2461 -2.44141,-1.23698 -4.5573,-2.50651 -2.11588,-1.26953 -3.67838,-2.79948 -1.5625,-1.52995 -2.47396,-3.45052 -0.87891,-1.95313 -0.87891,-4.5573 0,-3.1901 1.39974,-5.53386 1.39974,-2.3763 3.67839,-3.90625 2.27865,-1.52995 5.17578,-2.27864 2.92969,-0.7487 5.95704,-0.7487 6.90104,0 10.0586,1.66015 v 6.15235 q -4.13412,-2.86458 -10.61199,-2.86458 -1.79036,0 -3.58073,0.39062 -1.79036,0.35807 -3.19011,1.20443 -1.39974,0.84635 -2.27864,2.18099 -0.87891,1.33464 -0.87891,3.25521 0,1.79037 0.65104,3.09245 0.6836,1.30208 1.98568,2.3763 1.30209,1.07422 3.15755,2.08334 1.88803,1.00911 4.32943,2.21354 2.50652,1.23698 4.75261,2.60417 2.2461,1.36719 3.93881,3.02734 1.6927,1.66016 2.66927,3.67839 1.00911,2.01823 1.00911,4.6224 0,3.45052 -1.36719,5.85938 -1.33463,2.3763 -3.64583,3.8737 -2.27865,1.49739 -5.27344,2.14844 -2.99479,0.68359 -6.31511,0.68359 -1.10677,0 -2.73438,-0.19531 -1.6276,-0.16276 -3.32031,-0.52084 -1.69271,-0.32552 -3.22266,-0.8138 -1.49739,-0.52083 -2.40885,-1.13932 z" id="path245" /></g></g><g inkscape:label="AK" inkscape:groupmode="layer" id="layer1" transform="translate(0.40380614,-77.532953)"><path id="path398" style="fill:url(#linearGradient4678);fill-opacity:1;fill-rule:nonzero;stroke-width:0.265;stroke-dasharray:none;filter:url(#filter7754)" d="m 86.975053,87.340922 c -0.825279,0.14306 -1.670309,0.199863 -2.475818,0.429431 -0.664939,0.189505 -1.289781,0.50465 -1.90531,0.819588 -1.947938,0.996685 -3.71701,2.412685 -5.299418,3.909323 -0.6069,0.57401 -1.171556,1.190564 -1.757516,1.785937 -3.507596,3.925166 -6.686605,8.133659 -9.783382,12.386329 -3.474186,4.90024 -6.930658,9.81323 -10.413834,14.70711 -2.968117,4.2572 -6.131392,8.37114 -9.304859,12.47572 -2.524207,3.29014 -5.214577,6.44702 -7.786605,9.69863 -1.160508,1.4416 -2.254794,2.94263 -3.493843,4.31912 -0.775829,0.91344 -1.43241,1.92113 -2.093929,2.91869 -0.41259,0.39904 -0.834336,1.57106 -0.966866,1.86241 -1.916921,6.39202 6.654313,9.25888 9.146211,3.63389 0.02827,-0.0399 0.0326,-0.0449 0.06563,-0.0915 0.379989,-0.59762 0.791627,-1.18001 1.201477,-1.75648 1.361688,-1.53209 2.60462,-3.16457 3.874698,-4.77232 2.592418,-3.28087 5.309927,-6.46162 7.852234,-9.78286 0.67806,-0.8771 1.354479,-1.75522 2.029851,-2.63447 1.364475,-0.396 2.661313,-0.98678 3.993554,-1.47484 0.49164,-0.18011 2.137203,-0.74668 2.588473,-0.90279 2.543617,-0.93006 5.126849,-1.74705 7.724076,-2.51302 1.817668,-0.51293 3.652676,-0.96075 5.491655,-1.3901 1.430078,-0.25998 2.862221,-0.50899 4.28811,-0.79168 1.099829,-0.23443 2.223565,-0.28816 3.338814,-0.40256 0.518743,-0.0608 1.038815,-0.10784 1.559595,-0.14366 -0.0021,1.02029 -0.0063,2.04049 -0.0047,3.06079 0.0729,5.9546 0.126882,11.91425 0.450102,17.86144 0.693619,6.93615 10.502829,5.95481 9.80922,-0.98133 -0.27061,-5.66247 -0.332773,-11.33269 -0.402042,-17.00051 -0.009,-7.05898 0.0792,-14.11787 0.138492,-21.17649 0.0164,-3.88754 -0.06795,-7.77133 -0.382922,-11.646317 -0.18027,-2.211594 -0.536658,-4.390032 -1.167887,-6.516914 -0.5606,-1.858692 -1.241883,-3.967016 -3.106271,-4.979541 -0.976519,-0.530336 -2.13809,-0.607412 -3.207039,-0.911056 z m -3.525366,7.53339 c 0.01515,0.01619 0.0444,0.08945 0.05633,0.11989 0.01867,0.04751 0.03317,0.09654 0.05013,0.144694 -0.01828,-0.02518 -0.03558,-0.05178 -0.05426,-0.07648 -0.0386,-0.051 -0.06549,-0.117568 -0.06149,-0.181385 7.5e-4,-0.01088 0.0043,-0.01211 0.0093,-0.0067 z m 1.04438,4.413168 c 0.05112,0.42012 0.09612,0.84169 0.136426,1.26401 0.29408,3.58023 0.362163,7.16861 0.350883,10.76058 -0.02365,2.81374 -0.05115,5.62758 -0.07596,8.44134 -0.887038,0.0476 -1.772859,0.1152 -2.655652,0.21756 -1.411149,0.1579 -2.83544,0.22396 -4.226099,0.53795 -1.531578,0.30703 -3.073672,0.5565 -4.60592,0.86042 -2.022518,0.47334 -4.041277,0.96615 -6.039425,1.53479 -0.439964,0.13002 -0.878601,0.26396 -1.317749,0.39687 2.556386,-3.60852 5.10752,-7.22093 7.664132,-10.82931 2.817347,-3.87519 5.715147,-7.70354 8.874394,-11.30836 0.622666,-0.64889 1.241828,-1.279656 1.894974,-1.87585 z" transform="matrix(0.60498677,0,0,0.60498677,-13.481596,38.587302)" /><path id="path3869" style="fill:url(#linearGradient4594);fill-opacity:1;fill-rule:nonzero;stroke-width:0.265;stroke-dasharray:none;filter:url(#filter7742)" d="m 138.15126,69.174589 c -1.20032,-0.01132 -2.48282,0.448919 -3.67471,1.566313 -0.43897,0.437672 -0.90373,0.879535 -1.24592,1.401465 -0.71802,0.830484 -1.45462,1.650521 -2.05104,2.576586 -0.58812,0.840983 -1.14113,1.696528 -1.83865,2.455148 -0.6486,0.879077 -1.3021,1.754569 -1.9482,2.635498 -0.6636,0.970216 -1.41377,1.878405 -2.07222,2.852539 -0.67947,1.014179 -1.421,1.982605 -2.14716,2.963126 -0.79734,1.011996 -1.55093,2.063955 -2.42879,3.008086 -1.10101,1.206077 -2.14725,2.455364 -3.21583,3.689697 -1.07473,1.312211 -2.04354,2.701055 -3.04012,4.07262 -0.90403,1.288942 -1.77151,2.60224 -2.61276,3.933093 -0.67735,1.07258 -1.30198,2.17633 -1.98128,3.24683 -0.625,0.86633 -1.2449,1.73659 -1.84484,2.62051 -1e-5,-0.98569 -1.4e-4,-1.97124 0,-2.95692 2.4e-4,-1.13237 5.9e-4,-2.26484 0.002,-3.397212 0.002,-1.261516 0.005,-2.522752 5.2e-4,-3.784265 -0.0109,-1.697299 -0.0236,-3.396728 -0.15916,-5.089612 -0.16053,-1.651986 -0.42972,-3.288301 -0.62839,-4.935616 -0.92128,-6.909581 -10.692775,-5.606818 -9.771496,1.302763 h -5.17e-4 c 0.17102,1.525869 0.444861,3.03734 0.586011,4.566646 0.0992,1.403513 0.106995,2.811465 0.115755,4.21783 0.004,1.236174 5.57e-4,2.472641 -0.001,3.708818 -0.002,1.136268 -0.0021,2.272298 -0.0021,3.408578 -1.7e-4,1.23085 -2e-5,2.46196 0,3.6928 -0.007,1.26147 -0.12718,2.51947 -0.188619,3.77961 -0.0897,1.31899 -0.01912,2.64474 -0.104387,3.96307 -0.12004,1.50375 -0.177074,3.01084 -0.213424,4.51858 -0.0277,1.35806 -0.03126,2.7164 -0.03256,4.07469 -2.3e-4,1.25682 8.34e-4,2.514 0.001,3.77083 -0.039,1.01678 0.06223,2.04262 -0.02377,3.05718 -0.11081,1.16609 -0.175044,2.33469 -0.211874,3.50521 -0.0344,1.46956 -0.03271,2.93967 -0.03411,4.40955 -0.0406,1.09864 0.06435,2.20615 -0.02325,3.30264 -0.0516,1.03213 -0.161529,2.05581 -0.294038,3.07992 -0.0818,0.59949 -0.134507,1.2022 -0.176217,1.80557 -0.46429,6.95525 9.371806,7.61154 9.836086,0.65629 0.0249,-0.40033 0.0624,-0.79929 0.11679,-1.19682 0.1635,-1.26398 0.29209,-2.53024 0.36019,-3.80339 0.0589,-1.27773 0.0361,-2.55598 0.0387,-3.83491 0.001,-1.37236 -5e-4,-2.74497 0.0295,-4.11706 0.0321,-1.08497 0.10316,-2.16727 0.2005,-3.24838 0.0571,-1.2061 0.0401,-2.41259 0.0398,-3.61993 -5.3e-4,-1.25249 -0.002,-2.50491 -0.001,-3.7574 1.6e-4,-0.20657 0.002,-0.41302 0.002,-0.6196 0.59084,-0.27323 1.17558,-0.67793 1.73426,-1.23661 1.41319,-1.63605 2.52148,-3.49827 3.72277,-5.28805 0.58159,-0.81993 1.19419,-1.61615 1.80092,-2.41691 0.12178,0.28647 0.2431,0.57305 0.36639,0.85886 0.69448,1.63601 1.55367,3.19383 2.40967,4.74907 0.79281,1.49859 1.88553,2.79225 2.86546,4.16253 0.8167,1.21499 1.84253,2.2644 2.75125,3.40496 1.01726,1.34723 2.21161,2.53891 3.4556,3.6742 1.25191,1.14017 2.63199,2.10317 4.10053,2.93935 1.1738,0.62002 2.33477,1.2638 3.51296,1.87534 1.20021,0.58697 2.46836,1.00995 3.72949,1.44177 0.72761,0.2609 1.47847,0.43619 2.23552,0.58446 6.85353,1.27294 8.6539,-8.41949 1.80041,-9.69243 -0.28975,-0.0383 -0.56892,-0.12506 -0.84491,-0.21962 -0.80608,-0.27557 -1.6168,-0.54042 -2.40089,-0.8754 -1.08666,-0.55513 -2.14729,-1.16085 -3.23029,-1.72341 -0.82677,-0.43854 -1.56484,-1.0047 -2.26808,-1.62109 -0.88572,-0.80287 -1.73733,-1.63595 -2.44429,-2.60553 -0.81691,-0.99283 -1.69771,-1.93411 -2.43293,-2.99258 -0.75285,-1.02133 -1.57216,-1.99356 -2.19366,-3.10627 -0.70473,-1.28002 -1.42244,-2.5577 -1.99575,-3.90364 -0.82006,-1.89679 -1.59412,-3.81377 -2.43499,-5.70146 -0.15881,-0.34408 -0.33605,-0.65538 -0.52762,-0.93896 0.4311,-0.65711 0.86932,-1.30974 1.32395,-1.9513 0.86674,-1.14597 1.64125,-2.361903 2.5709,-3.459221 0.96595,-1.115041 1.91099,-2.244104 2.90577,-3.333647 1.04595,-1.111606 1.94121,-2.352049 2.88665,-3.547587 0.8799,-1.167854 1.75325,-2.339648 2.57555,-3.549137 0.65696,-0.926247 1.35352,-1.823143 2.00453,-2.753837 0.59536,-0.799337 1.18885,-1.599455 1.78077,-2.401404 0.74867,-0.816648 1.34685,-1.749703 1.98127,-2.653585 0.40201,-0.642698 0.92046,-1.196188 1.41645,-1.76475 0.13766,-0.175398 0.37557,-0.491293 0.55914,-0.702283 0.0355,-0.04077 0.13061,-0.169965 0.10904,-0.120406 -0.0251,0.05775 -0.0799,0.09708 -0.11989,0.145728 3.89353,-3.650155 0.85353,-8.721134 -3.06751,-8.758122 z" transform="matrix(0.60498677,0,0,0.60498677,-13.481596,38.587302)" /></g><g inkscape:groupmode="layer" id="layer3" inkscape:label="text" transform="translate(0.40380614,-77.532953)" /></svg>
