<svg width="8.4667mm" height="8.4667mm" version="1.1" viewBox="0 0 8.4667 8.4667" xmlns="http://www.w3.org/2000/svg"><g fill="#fff"><path d="m2.4107 0c-1.3354 0-2.4107 1.0098-2.4107 2.2639v3.9388c0 1.2542 1.0753 2.264 2.4107 2.264h3.6453c1.3354 0 2.4107-1.0098 2.4107-2.264v-3.9388c0-1.2542-1.0753-2.2639-2.4107-2.2639zm0.35037 0.81442h2.9445c1.0784 0 1.9467 0.81546 1.9467 1.8283v3.1812c0 1.0129-0.86821 1.8283-1.9467 1.8283h-2.9445c-1.0784 0-1.9467-0.81546-1.9467-1.8283v-3.1812c0-1.0128 0.86821-1.8283 1.9467-1.8283z" stroke-width=".26458"/><path d="m4.2337 2.07c-1.199 0-2.1642 0.9653-2.1642 2.1643s0.96529 2.1641 2.1642 2.1641 2.1641-0.96517 2.1641-2.1641c0-1.199-0.96516-2.1643-2.1641-2.1643zm0 0.83733c0.73513 0 1.3269 0.5918 1.3269 1.3269 0 0.73512-0.5918 1.3269-1.3269 1.3269-0.73513 0-1.3271-0.5918-1.3271-1.3269 0-0.73513 0.59192-1.3269 1.3271-1.3269z" stroke-width=".13526"/><circle cx="6.4747" cy="2.07" r=".53756" stroke-width=".26458"/></g></svg>
