<?xml version="1.0" encoding="UTF-8" standalone="no"?>
<!-- Created with Inkscape (http://www.inkscape.org/) -->

<svg
   width="8.4666672mm"
   height="8.46667mm"
   viewBox="0 0 8.4666672 8.46667"
   version="1.1"
   id="svg5"
   xml:space="preserve"
   inkscape:version="1.2.1 (9c6d41e410, 2022-07-14)"
   sodipodi:docname="insta-logo.svg"
   xmlns:inkscape="http://www.inkscape.org/namespaces/inkscape"
   xmlns:sodipodi="http://sodipodi.sourceforge.net/DTD/sodipodi-0.dtd"
   xmlns:xlink="http://www.w3.org/1999/xlink"
   xmlns="http://www.w3.org/2000/svg"
   xmlns:svg="http://www.w3.org/2000/svg"><sodipodi:namedview
     id="namedview7"
     pagecolor="#ffffff"
     bordercolor="#000000"
     borderopacity="0.25"
     inkscape:showpageshadow="2"
     inkscape:pageopacity="0.0"
     inkscape:pagecheckerboard="0"
     inkscape:deskcolor="#d1d1d1"
     inkscape:document-units="mm"
     showgrid="false"
     inkscape:zoom="11.313708"
     inkscape:cx="10.827573"
     inkscape:cy="25.411651"
     inkscape:window-width="1920"
     inkscape:window-height="1001"
     inkscape:window-x="-9"
     inkscape:window-y="-9"
     inkscape:window-maximized="1"
     inkscape:current-layer="g2065" /><defs
     id="defs2"><linearGradient
       inkscape:collect="always"
       id="linearGradient3902"><stop
         style="stop-color:#9500ff;stop-opacity:1;"
         offset="0.01497006"
         id="stop3898" /><stop
         style="stop-color:#d900b1;stop-opacity:1;"
         offset="0.25472462"
         id="stop3906" /><stop
         style="stop-color:#e90069;stop-opacity:1;"
         offset="0.44480431"
         id="stop4036" /><stop
         style="stop-color:#ff0606;stop-opacity:1;"
         offset="0.62125748"
         id="stop3908" /><stop
         style="stop-color:#f35c00;stop-opacity:1;"
         offset="0.79565871"
         id="stop3910" /><stop
         style="stop-color:#ecf600;stop-opacity:1;"
         offset="1"
         id="stop3900" /></linearGradient><linearGradient
       inkscape:collect="always"
       xlink:href="#linearGradient3902"
       id="linearGradient3904"
       x1="37.4944"
       y1="124.97388"
       x2="60.628731"
       y2="153.04851"
       gradientUnits="userSpaceOnUse"
       gradientTransform="matrix(0.26458333,0,0,0.26458333,23.906529,89.377818)" /><linearGradient
       inkscape:collect="always"
       xlink:href="#linearGradient3902"
       id="linearGradient6460"
       gradientUnits="userSpaceOnUse"
       x1="37.4944"
       y1="124.97388"
       x2="60.628731"
       y2="153.04851"
       gradientTransform="matrix(0.13526185,0,0,0.13526185,30.179583,107.16386)" /><linearGradient
       inkscape:collect="always"
       xlink:href="#linearGradient3902"
       id="linearGradient12737"
       x1="31.399252"
       y1="157.01961"
       x2="64.784515"
       y2="190.45058"
       gradientUnits="userSpaceOnUse"
       gradientTransform="matrix(0.22333334,0,0,0.22333334,25.774125,98.270932)" /><linearGradient
       inkscape:collect="always"
       xlink:href="#linearGradient3902"
       id="linearGradient12741"
       gradientUnits="userSpaceOnUse"
       x1="36.50341"
       y1="162.23167"
       x2="59.478783"
       y2="185.23849"
       gradientTransform="matrix(0.32452329,0,0,0.32452329,20.940418,80.690692)" /><linearGradient
       inkscape:collect="always"
       xlink:href="#linearGradient3902"
       id="linearGradient2464"
       gradientUnits="userSpaceOnUse"
       gradientTransform="matrix(0.26458333,0,0,0.26458333,23.906529,89.377818)"
       x1="37.4944"
       y1="124.97388"
       x2="60.628731"
       y2="153.04851" /><linearGradient
       inkscape:collect="always"
       xlink:href="#linearGradient3902"
       id="linearGradient2466"
       gradientUnits="userSpaceOnUse"
       gradientTransform="matrix(0.26458333,0,0,0.26458333,23.906529,89.377818)"
       x1="37.4944"
       y1="124.97388"
       x2="60.628731"
       y2="153.04851" /></defs><g
     inkscape:label="insta colored"
     inkscape:groupmode="layer"
     id="layer1"
     transform="translate(-32.507462,-121.53358)"
     style="display:none"
     sodipodi:insensitive="true"><g
       id="g20437"
       inkscape:label="trans"
       style="display:none"><path
         id="rect20431"
         style="display:inline;fill:url(#linearGradient2464);fill-opacity:1;stroke-width:0.264583"
         inkscape:label="transouter"
         d="m 34.918168,121.53358 c -1.335391,0 -2.410706,1.00977 -2.410706,2.26394 v 3.93878 c 0,1.25417 1.075315,2.26395 2.410706,2.26395 h 3.645255 c 1.335392,0 2.410706,-1.00978 2.410706,-2.26395 v -3.93878 c 0,-1.25417 -1.075314,-2.26394 -2.410706,-2.26394 z m 0.350366,0.81442 h 2.944523 c 1.078443,0 1.946651,0.81546 1.946651,1.82831 v 3.1812 c 0,1.01286 -0.868208,1.82832 -1.946651,1.82832 h -2.944523 c -1.078443,0 -1.946651,-0.81546 -1.946651,-1.82832 v -3.1812 c 0,-1.01285 0.868208,-1.82831 1.946651,-1.82831 z" /></g><rect
       style="display:inline;fill:url(#linearGradient2466);fill-opacity:1;stroke-width:0.264583"
       id="rect768"
       width="8.4666662"
       height="8.4666662"
       x="32.507462"
       y="121.53358"
       rx="2.4104557"
       ry="2.2638502" /><rect
       style="display:inline;fill:#ffffff;fill-opacity:1;stroke-width:0.213674"
       id="rect5724"
       width="6.8375587"
       height="6.8375587"
       x="33.322018"
       y="122.34814"
       rx="1.9466496"
       ry="1.8282529" /><path
       id="rect6454"
       style="fill:url(#linearGradient6460);fill-opacity:1;stroke-width:0.135262"
       d="m 36.740835,123.60269 c -1.19896,0 -2.164247,0.9653 -2.164247,2.16426 0,1.19895 0.965287,2.16412 2.164247,2.16412 1.19896,0 2.164121,-0.96517 2.164121,-2.16412 0,-1.19896 -0.965161,-2.16426 -2.164121,-2.16426 z m 0,0.83733 c 0.735131,0 1.326927,0.5918 1.326927,1.32693 0,0.73512 -0.591796,1.32692 -1.326927,1.32692 -0.735129,0 -1.327053,-0.5918 -1.327053,-1.32692 0,-0.73513 0.591924,-1.32693 1.327053,-1.32693 z" /><circle
       style="fill:#e5007a;fill-opacity:1;stroke-width:0.264583"
       id="path9554"
       cx="38.98238"
       cy="123.6025"
       r="0.53755826" /></g><g
     inkscape:label="insta white"
     inkscape:groupmode="layer"
     id="g2065"
     transform="translate(-32.507462,-121.53358)"
     style="display:inline"><g
       id="g2055"
       inkscape:label="trans"
       style="display:inline"><path
         id="path2053"
         style="display:inline;fill:#ffffff;fill-opacity:1;stroke-width:0.264583"
         inkscape:label="transouter"
         d="m 34.918168,121.53358 c -1.335391,0 -2.410706,1.00977 -2.410706,2.26394 v 3.93878 c 0,1.25417 1.075315,2.26395 2.410706,2.26395 h 3.645255 c 1.335392,0 2.410706,-1.00978 2.410706,-2.26395 v -3.93878 c 0,-1.25417 -1.075314,-2.26394 -2.410706,-2.26394 z m 0.350366,0.81442 h 2.944523 c 1.078443,0 1.946651,0.81546 1.946651,1.82831 v 3.1812 c 0,1.01286 -0.868208,1.82832 -1.946651,1.82832 h -2.944523 c -1.078443,0 -1.946651,-0.81546 -1.946651,-1.82832 v -3.1812 c 0,-1.01285 0.868208,-1.82831 1.946651,-1.82831 z" /></g><rect
       style="display:none;fill:url(#linearGradient3904);fill-opacity:1;stroke-width:0.264583"
       id="rect2057"
       width="8.4666662"
       height="8.4666662"
       x="32.507462"
       y="121.53358"
       rx="2.4104557"
       ry="2.2638502" /><rect
       style="display:none;fill:#ffffff;fill-opacity:1;stroke-width:0.213674"
       id="rect2059"
       width="6.8375587"
       height="6.8375587"
       x="33.322018"
       y="122.34814"
       rx="1.9466496"
       ry="1.8282529" /><path
       id="path2061"
       style="display:inline;fill:#ffffff;fill-opacity:1;stroke-width:0.135262"
       d="m 36.740835,123.60269 c -1.19896,0 -2.164247,0.9653 -2.164247,2.16426 0,1.19895 0.965287,2.16412 2.164247,2.16412 1.19896,0 2.164121,-0.96517 2.164121,-2.16412 0,-1.19896 -0.965161,-2.16426 -2.164121,-2.16426 z m 0,0.83733 c 0.735131,0 1.326927,0.5918 1.326927,1.32693 0,0.73512 -0.591796,1.32692 -1.326927,1.32692 -0.735129,0 -1.327053,-0.5918 -1.327053,-1.32692 0,-0.73513 0.591924,-1.32693 1.327053,-1.32693 z" /><circle
       style="display:inline;fill:#ffffff;fill-opacity:1;stroke-width:0.264583"
       id="circle2063"
       cx="38.98238"
       cy="123.6025"
       r="0.53755826" /></g><g
     id="g20398"
     style="display:none"
     transform="translate(-32.507462,-121.53358)"><rect
       style="fill:url(#linearGradient12741);fill-opacity:1;stroke-width:0.264585"
       id="rect12739"
       width="8.4666662"
       height="8.4666662"
       x="32.209126"
       y="132.83842"
       rx="2.4104557"
       ry="2.2638502" /><rect
       style="fill:#ffffff;fill-opacity:1;stroke-width:0.223333"
       id="rect12695"
       width="7.146667"
       height="7.146667"
       x="32.869125"
       y="133.49843"
       rx="2.0346525"
       ry="1.9109035" /><rect
       style="fill:url(#linearGradient12737);fill-opacity:1;stroke-width:0.182083"
       id="rect12697"
       width="5.8266668"
       height="5.8266668"
       x="33.529125"
       y="134.15843"
       rx="1.6588491"
       ry="1.5579567" /><path
       id="path12699"
       style="fill:#ffffff;fill-opacity:1;stroke-width:0.116664"
       d="m 36.442494,135.20511 c -1.034112,0 -1.86668,0.83257 -1.86668,1.86668 0,1.03411 0.832568,1.86658 1.86668,1.86658 1.034112,0 1.866571,-0.83247 1.866571,-1.86658 0,-1.03411 -0.832459,-1.86668 -1.866571,-1.86668 z m 0,0.7222 c 0.634056,0 1.144484,0.51043 1.144484,1.14448 0,0.63405 -0.510428,1.14448 -1.144484,1.14448 -0.634055,0 -1.144593,-0.51043 -1.144593,-1.14448 0,-0.63405 0.510538,-1.14448 1.144593,-1.14448 z" /><circle
       style="fill:#ffffff;fill-opacity:1;stroke-width:0.223333"
       id="circle12701"
       cx="38.417252"
       cy="135.28761"
       r="0.45375001" /></g></svg>
