<svg class="mercado-match" width="32" height="32" data-supported-dps="24x24" focusable="false" version="1.1" viewBox="0 0 20 20" xmlns="http://www.w3.org/2000/svg"><rect x="2.4478" y="2.5373" width="14.836" height="14.806" display="none" fill="#fff" stroke-width=".87887"/><path d="m18.5 0h-17a1.5 1.5 0 0 0-1.5 1.5v17a1.5 1.5 0 0 0 1.5 1.5h17a1.5 1.5 0 0 0 1.5-1.5v-17a1.5 1.5 0 0 0-1.5-1.5zm-12.5 17h-3v-9h3zm-1.5-10.75a1.75 1.75 0 1 1 1.8-1.75 1.78 1.78 0 0 1-1.8 1.75zm12.5 10.75h-3v-4.74c0-1.42-0.6-1.93-1.38-1.93a1.74 1.74 0 0 0-1.62 1.86 0.66 0.66 0 0 0 0 0.14v4.67h-3v-9h2.9v1.3a3.11 3.11 0 0 1 2.7-1.4c1.55 0 3.36 0.86 3.36 3.66z" display="none" fill="#004e9c"/><path d="m18.5 0h-17a1.5 1.5 0 0 0-1.5 1.5v17a1.5 1.5 0 0 0 1.5 1.5h17a1.5 1.5 0 0 0 1.5-1.5v-17a1.5 1.5 0 0 0-1.5-1.5zm-12.5 17h-3v-9h3zm-1.5-10.75a1.75 1.75 0 1 1 1.8-1.75 1.78 1.78 0 0 1-1.8 1.75zm12.5 10.75h-3v-4.74c0-1.42-0.6-1.93-1.38-1.93a1.74 1.74 0 0 0-1.62 1.86 0.66 0.66 0 0 0 0 0.14v4.67h-3v-9h2.9v1.3a3.11 3.11 0 0 1 2.7-1.4c1.55 0 3.36 0.86 3.36 3.66z" fill="#fff"/></svg>