<?xml version="1.0" encoding="UTF-8" standalone="no"?>
<svg
   viewBox="0 0 20 20"
   data-supported-dps="24x24"
   fill="currentColor"
   class="mercado-match"
   width="20"
   height="20"
   focusable="false"
   data-darkreader-inline-fill=""
   version="1.1"
   id="svg4"
   sodipodi:docname="linkedin-logo.svg"
   inkscape:version="1.2.1 (9c6d41e410, 2022-07-14)"
   xmlns:inkscape="http://www.inkscape.org/namespaces/inkscape"
   xmlns:sodipodi="http://sodipodi.sourceforge.net/DTD/sodipodi-0.dtd"
   xmlns="http://www.w3.org/2000/svg"
   xmlns:svg="http://www.w3.org/2000/svg">
  <defs
     id="defs8" />
  <sodipodi:namedview
     id="namedview6"
     pagecolor="#ffffff"
     bordercolor="#000000"
     borderopacity="0.25"
     inkscape:showpageshadow="2"
     inkscape:pageopacity="0.0"
     inkscape:pagecheckerboard="0"
     inkscape:deskcolor="#d1d1d1"
     showgrid="false"
     inkscape:zoom="33.5"
     inkscape:cx="10.044776"
     inkscape:cy="10.014925"
     inkscape:window-width="1920"
     inkscape:window-height="1001"
     inkscape:window-x="-9"
     inkscape:window-y="-9"
     inkscape:window-maximized="1"
     inkscape:current-layer="svg4"
     shape-rendering="crispEdges" />
  <rect
     style="display:none;fill:#ffffff;stroke-width:0.878872"
     id="rect19610"
     width="14.835821"
     height="14.80597"
     x="2.4477613"
     y="2.5373135" />
  <path
     d="M 18.5,0 H 1.5 A 1.5,1.5 0 0 0 0,1.5 v 17 A 1.5,1.5 0 0 0 1.5,20 h 17 A 1.5,1.5 0 0 0 20,18.5 V 1.5 A 1.5,1.5 0 0 0 18.5,0 Z M 6,17 H 3 V 8 H 6 Z M 4.5,6.25 A 1.75,1.75 0 1 1 6.3,4.5 1.78,1.78 0 0 1 4.5,6.25 Z M 17,17 h -3 v -4.74 c 0,-1.42 -0.6,-1.93 -1.38,-1.93 A 1.74,1.74 0 0 0 11,12.19 0.66,0.66 0 0 0 11,12.33 V 17 H 8 V 8 h 2.9 v 1.3 a 3.11,3.11 0 0 1 2.7,-1.4 c 1.55,0 3.36,0.86 3.36,3.66 z"
     id="path2"
     style="display:none;fill:#004e9c;fill-opacity:1" />
  <path
     d="M 18.5,0 H 1.5 A 1.5,1.5 0 0 0 0,1.5 v 17 A 1.5,1.5 0 0 0 1.5,20 h 17 A 1.5,1.5 0 0 0 20,18.5 V 1.5 A 1.5,1.5 0 0 0 18.5,0 Z M 6,17 H 3 V 8 H 6 Z M 4.5,6.25 A 1.75,1.75 0 1 1 6.3,4.5 1.78,1.78 0 0 1 4.5,6.25 Z M 17,17 h -3 v -4.74 c 0,-1.42 -0.6,-1.93 -1.38,-1.93 A 1.74,1.74 0 0 0 11,12.19 0.66,0.66 0 0 0 11,12.33 V 17 H 8 V 8 h 2.9 v 1.3 a 3.11,3.11 0 0 1 2.7,-1.4 c 1.55,0 3.36,0.86 3.36,3.66 z"
     id="path3125"
     style="fill:#ffffff;fill-opacity:1"
     inkscape:label="white" />
</svg>
