<?xml version="1.0" encoding="UTF-8" standalone="no"?>
<!-- Generator: Adobe Illustrator 24.0.2, SVG Export Plug-In . SVG Version: 6.00 Build 0)  -->

<svg version="1.1" id="Entire" x="0px" y="0px" viewBox="0 0 63.471901 84.226653" xml:space="preserve" sodipodi:docname="cc-logo.svg" width="63.471901" height="84.226654" inkscape:version="1.2 (dc2aedaf03, 2022-05-15)" xmlns:inkscape="http://www.inkscape.org/namespaces/inkscape" xmlns:sodipodi="http://sodipodi.sourceforge.net/DTD/sodipodi-0.dtd" xmlns="http://www.w3.org/2000/svg" xmlns:svg="http://www.w3.org/2000/svg"><defs id="defs252" /><sodipodi:namedview id="namedview250" pagecolor="#ffffff" bordercolor="#000000" borderopacity="0.25" inkscape:showpageshadow="2" inkscape:pageopacity="0.0" inkscape:pagecheckerboard="0" inkscape:deskcolor="#d1d1d1" showgrid="false" inkscape:zoom="5.9538462" inkscape:cx="89.018088" inkscape:cy="48.875969" inkscape:window-width="1920" inkscape:window-height="1012" inkscape:window-x="-8" inkscape:window-y="-8" inkscape:window-maximized="1" inkscape:current-layer="Entire" />
<style type="text/css" id="style2">
	.st0{fill:#282827;}
	.st1{fill:#29B57F;}
	.st2{fill-rule:evenodd;clip-rule:evenodd;fill:#4A79BC;}
	.st3{fill:#4A79BC;}
	.st4{fill:#FFFFFF;}
	.st5{fill-rule:evenodd;clip-rule:evenodd;fill:url(#brown_1_);}
	.st6{fill:#5B4538;}
	.st7{fill-rule:evenodd;clip-rule:evenodd;fill:#5B4538;}
	.st8{fill:url(#SVGID_1_);}
	.st9{fill:#C8BCA8;}
	.st10{fill-rule:evenodd;clip-rule:evenodd;fill:url(#SVGID_2_);}
	.st11{fill-rule:evenodd;clip-rule:evenodd;fill:url(#SVGID_3_);}
	.st12{fill:#A99675;}
	.st13{fill-rule:evenodd;clip-rule:evenodd;fill:url(#SVGID_4_);}
	.st14{fill:url(#SVGID_5_);}
	.st15{fill:#B5A584;}
	.st16{fill:#CABB9C;}
	.st17{fill:url(#_x35__1_);}
	.st18{fill:url(#SVGID_6_);}
	.st19{fill:#F8F3DE;}
</style>
<g id="g86" style="display:none" transform="translate(-5.34,-1.2147232)">
	<path class="st0" d="m 117.14,94.72 h -0.61 c -0.07,0 -0.13,-0.02 -0.17,-0.05 -0.04,-0.04 -0.08,-0.08 -0.1,-0.14 l -0.55,-1.47 h -2.62 l -0.55,1.47 c -0.02,0.05 -0.05,0.1 -0.09,0.14 -0.05,0.04 -0.1,0.06 -0.17,0.06 h -0.61 l 2.34,-6.07 h 0.8 z M 115.49,92.47 114.58,90 c -0.03,-0.07 -0.06,-0.16 -0.09,-0.26 -0.03,-0.1 -0.06,-0.2 -0.09,-0.31 -0.06,0.23 -0.12,0.42 -0.18,0.57 l -0.92,2.46 h 2.19 z" id="path4" />
	<path class="st0" d="m 118.33,91.05 c 0.09,-0.1 0.19,-0.2 0.29,-0.28 0.1,-0.09 0.21,-0.16 0.32,-0.22 0.11,-0.06 0.23,-0.11 0.36,-0.14 0.13,-0.03 0.26,-0.05 0.41,-0.05 0.23,0 0.42,0.04 0.6,0.12 0.17,0.08 0.32,0.19 0.43,0.33 0.12,0.14 0.2,0.31 0.26,0.51 0.06,0.2 0.09,0.42 0.09,0.67 v 2.73 h -0.73 v -2.73 c 0,-0.32 -0.07,-0.58 -0.21,-0.76 -0.14,-0.18 -0.36,-0.27 -0.65,-0.27 -0.22,0 -0.42,0.05 -0.6,0.16 -0.19,0.11 -0.36,0.25 -0.52,0.44 v 3.16 h -0.73 v -4.29 h 0.44 c 0.1,0 0.17,0.05 0.19,0.16 z" id="path6" />
	<path class="st0" d="m 176.56,94.05 v 0.67 h -3.6 v -6.07 h 3.6 v 0.67 h -2.81 v 2.01 h 2.27 v 0.64 h -2.27 v 2.07 h 2.81 z" id="path8" />
	<path class="st0" d="m 180.66,88.49 v 6.24 h -0.43 c -0.1,0 -0.17,-0.05 -0.19,-0.16 l -0.07,-0.52 c -0.18,0.22 -0.38,0.4 -0.6,0.53 -0.23,0.14 -0.49,0.2 -0.78,0.2 -0.24,0 -0.45,-0.05 -0.65,-0.14 -0.19,-0.09 -0.36,-0.23 -0.49,-0.42 -0.14,-0.18 -0.24,-0.41 -0.32,-0.69 -0.07,-0.27 -0.11,-0.59 -0.11,-0.94 0,-0.32 0.04,-0.61 0.12,-0.88 0.08,-0.27 0.2,-0.51 0.35,-0.71 0.15,-0.2 0.34,-0.36 0.56,-0.47 0.22,-0.11 0.47,-0.17 0.75,-0.17 0.25,0 0.47,0.04 0.65,0.13 0.18,0.09 0.34,0.21 0.48,0.37 v -2.37 z m -0.73,2.96 c -0.14,-0.19 -0.28,-0.32 -0.44,-0.4 -0.16,-0.07 -0.33,-0.11 -0.53,-0.11 -0.38,0 -0.68,0.14 -0.88,0.43 -0.21,0.29 -0.31,0.69 -0.31,1.22 0,0.28 0.02,0.52 0.07,0.72 0.05,0.2 0.11,0.36 0.2,0.49 0.09,0.13 0.2,0.22 0.33,0.28 0.13,0.06 0.28,0.09 0.44,0.09 0.24,0 0.45,-0.06 0.63,-0.17 0.18,-0.11 0.34,-0.27 0.49,-0.48 z" id="path10" />
	<path class="st0" d="m 185.12,90.43 v 4.29 h -0.43 c -0.1,0 -0.17,-0.05 -0.2,-0.16 l -0.06,-0.46 c -0.18,0.21 -0.38,0.37 -0.6,0.5 -0.22,0.13 -0.48,0.19 -0.77,0.19 -0.23,0 -0.43,-0.04 -0.6,-0.12 -0.17,-0.08 -0.32,-0.19 -0.43,-0.33 -0.12,-0.14 -0.2,-0.31 -0.26,-0.51 -0.06,-0.2 -0.09,-0.42 -0.09,-0.66 v -2.74 h 0.73 v 2.74 c 0,0.32 0.07,0.58 0.21,0.75 0.14,0.18 0.36,0.27 0.65,0.27 0.22,0 0.42,-0.05 0.6,-0.16 0.19,-0.11 0.36,-0.25 0.52,-0.44 v -3.16 z" id="path12" />
	<path class="st0" d="m 189.07,91.19 c -0.02,0.03 -0.04,0.05 -0.07,0.07 -0.02,0.02 -0.05,0.02 -0.09,0.02 -0.04,0 -0.09,-0.02 -0.13,-0.05 -0.05,-0.04 -0.11,-0.08 -0.18,-0.12 -0.07,-0.04 -0.16,-0.08 -0.27,-0.12 -0.1,-0.04 -0.23,-0.05 -0.38,-0.05 -0.2,0 -0.38,0.04 -0.54,0.11 -0.15,0.07 -0.28,0.18 -0.39,0.32 -0.1,0.14 -0.18,0.31 -0.24,0.51 -0.05,0.2 -0.08,0.42 -0.08,0.67 0,0.26 0.03,0.49 0.09,0.69 0.06,0.2 0.14,0.37 0.24,0.51 0.11,0.14 0.23,0.24 0.38,0.31 0.15,0.07 0.32,0.11 0.5,0.11 0.18,0 0.32,-0.02 0.44,-0.07 0.11,-0.04 0.21,-0.09 0.28,-0.15 0.08,-0.05 0.14,-0.1 0.19,-0.15 0.05,-0.04 0.1,-0.06 0.15,-0.06 0.06,0 0.11,0.02 0.14,0.07 l 0.2,0.28 c -0.09,0.12 -0.19,0.22 -0.31,0.3 -0.11,0.08 -0.24,0.15 -0.37,0.2 -0.13,0.05 -0.27,0.09 -0.42,0.12 -0.14,0.03 -0.29,0.04 -0.44,0.04 -0.26,0 -0.5,-0.05 -0.72,-0.15 -0.22,-0.1 -0.41,-0.24 -0.58,-0.43 -0.16,-0.19 -0.29,-0.42 -0.38,-0.69 -0.09,-0.27 -0.14,-0.59 -0.14,-0.93 0,-0.32 0.04,-0.61 0.13,-0.88 0.09,-0.27 0.21,-0.51 0.37,-0.7 0.16,-0.2 0.37,-0.35 0.61,-0.46 0.24,-0.11 0.52,-0.17 0.83,-0.17 0.29,0 0.55,0.05 0.77,0.15 0.22,0.1 0.42,0.23 0.59,0.41 z" id="path14" />
	<path class="st0" d="m 189.9,91.04 c 0.23,-0.23 0.47,-0.4 0.74,-0.51 0.26,-0.11 0.56,-0.17 0.88,-0.17 0.23,0 0.44,0.04 0.61,0.12 0.18,0.08 0.33,0.19 0.45,0.33 0.12,0.14 0.21,0.31 0.28,0.51 0.06,0.2 0.09,0.42 0.09,0.66 v 2.74 h -0.32 c -0.07,0 -0.13,-0.01 -0.16,-0.04 -0.04,-0.02 -0.07,-0.07 -0.09,-0.14 l -0.08,-0.41 c -0.11,0.1 -0.21,0.2 -0.32,0.28 -0.1,0.08 -0.21,0.15 -0.33,0.2 -0.11,0.05 -0.24,0.1 -0.37,0.13 -0.13,0.03 -0.27,0.05 -0.43,0.05 -0.16,0 -0.31,-0.02 -0.45,-0.07 -0.14,-0.05 -0.26,-0.12 -0.37,-0.21 -0.1,-0.09 -0.19,-0.21 -0.25,-0.35 -0.06,-0.14 -0.09,-0.31 -0.09,-0.51 0,-0.17 0.05,-0.33 0.13,-0.49 0.09,-0.16 0.24,-0.29 0.44,-0.42 0.2,-0.12 0.46,-0.22 0.79,-0.3 0.32,-0.08 0.72,-0.12 1.19,-0.13 v -0.33 c 0,-0.33 -0.07,-0.59 -0.21,-0.76 -0.14,-0.17 -0.34,-0.26 -0.61,-0.26 -0.18,0 -0.33,0.02 -0.45,0.07 -0.12,0.05 -0.23,0.1 -0.31,0.16 -0.09,0.06 -0.16,0.11 -0.23,0.16 -0.06,0.05 -0.13,0.07 -0.19,0.07 -0.05,0 -0.09,-0.01 -0.13,-0.04 -0.04,-0.03 -0.06,-0.06 -0.09,-0.1 z m 2.35,1.75 c -0.33,0.01 -0.62,0.04 -0.85,0.08 -0.23,0.05 -0.43,0.1 -0.57,0.17 -0.15,0.07 -0.26,0.15 -0.32,0.25 -0.07,0.1 -0.1,0.2 -0.1,0.32 0,0.11 0.02,0.21 0.05,0.29 0.03,0.08 0.08,0.15 0.14,0.2 0.06,0.05 0.13,0.09 0.22,0.11 0.08,0.02 0.17,0.04 0.27,0.04 0.13,0 0.24,-0.01 0.35,-0.04 0.11,-0.03 0.21,-0.07 0.3,-0.12 0.09,-0.05 0.18,-0.11 0.27,-0.18 0.09,-0.07 0.17,-0.15 0.25,-0.24 v -0.88 z" id="path16" />
	<path class="st0" d="m 195.2,94.79 c -0.33,0 -0.58,-0.09 -0.75,-0.28 -0.18,-0.19 -0.26,-0.46 -0.26,-0.82 v -2.63 h -0.5 c -0.04,0 -0.08,-0.01 -0.11,-0.04 -0.03,-0.03 -0.05,-0.07 -0.05,-0.12 v -0.3 l 0.68,-0.09 0.17,-1.33 c 0.01,-0.04 0.03,-0.08 0.05,-0.1 0.03,-0.03 0.07,-0.04 0.11,-0.04 h 0.37 v 1.48 h 1.2 v 0.55 h -1.2 v 2.57 c 0,0.18 0.04,0.32 0.13,0.4 0.08,0.09 0.19,0.13 0.32,0.13 0.08,0 0.14,-0.01 0.2,-0.03 0.06,-0.02 0.1,-0.04 0.14,-0.07 0.04,-0.03 0.08,-0.05 0.1,-0.07 0.03,-0.02 0.05,-0.03 0.08,-0.03 0.04,0 0.07,0.02 0.1,0.07 l 0.21,0.36 c -0.13,0.12 -0.28,0.22 -0.45,0.29 -0.17,0.06 -0.36,0.1 -0.54,0.1 z" id="path18" />
	<g id="g26">
		<path class="st0" d="m 216.48,94.72 h -0.79 v -6.07 h 0.79 z" id="path20" />
		<path class="st0" d="m 218.34,91.05 c 0.09,-0.1 0.19,-0.2 0.29,-0.28 0.1,-0.09 0.21,-0.16 0.32,-0.22 0.11,-0.06 0.23,-0.11 0.36,-0.14 0.13,-0.03 0.26,-0.05 0.41,-0.05 0.23,0 0.42,0.04 0.6,0.12 0.17,0.08 0.32,0.19 0.43,0.33 0.12,0.14 0.2,0.31 0.26,0.51 0.06,0.2 0.09,0.42 0.09,0.67 v 2.73 h -0.73 v -2.73 c 0,-0.32 -0.07,-0.58 -0.21,-0.76 -0.14,-0.18 -0.36,-0.27 -0.65,-0.27 -0.22,0 -0.42,0.05 -0.6,0.16 -0.19,0.11 -0.36,0.25 -0.52,0.44 v 3.16 h -0.73 v -4.29 h 0.44 c 0.1,0 0.17,0.05 0.19,0.16 z" id="path22" />
		<path class="st0" d="m 223.05,89.09 c 0,0.07 -0.01,0.14 -0.04,0.21 -0.03,0.07 -0.07,0.12 -0.11,0.17 -0.05,0.05 -0.1,0.09 -0.17,0.12 -0.06,0.03 -0.13,0.04 -0.2,0.04 -0.07,0 -0.14,-0.01 -0.2,-0.04 -0.06,-0.03 -0.11,-0.07 -0.16,-0.12 -0.05,-0.05 -0.08,-0.11 -0.11,-0.17 -0.03,-0.06 -0.04,-0.13 -0.04,-0.21 0,-0.07 0.01,-0.14 0.04,-0.21 0.03,-0.07 0.06,-0.12 0.11,-0.17 0.05,-0.05 0.1,-0.09 0.16,-0.12 0.06,-0.03 0.13,-0.04 0.2,-0.04 0.07,0 0.14,0.01 0.2,0.04 0.06,0.03 0.12,0.07 0.17,0.12 0.05,0.05 0.09,0.11 0.11,0.17 0.02,0.06 0.04,0.13 0.04,0.21 z m -0.16,1.34 v 4.29 h -0.73 v -4.29 z" id="path24" />
	</g>
	<g id="g30">
		<path class="st0" d="m 225.45,94.79 c -0.33,0 -0.58,-0.09 -0.75,-0.28 -0.18,-0.19 -0.26,-0.46 -0.26,-0.82 v -2.63 h -0.5 c -0.04,0 -0.08,-0.01 -0.11,-0.04 -0.03,-0.03 -0.05,-0.07 -0.05,-0.12 v -0.3 l 0.68,-0.09 0.17,-1.33 c 0.01,-0.04 0.03,-0.08 0.05,-0.1 0.03,-0.03 0.07,-0.04 0.11,-0.04 h 0.37 v 1.48 h 1.2 v 0.55 h -1.2 v 2.57 c 0,0.18 0.04,0.32 0.13,0.4 0.08,0.09 0.19,0.13 0.32,0.13 0.08,0 0.14,-0.01 0.2,-0.03 0.06,-0.02 0.1,-0.04 0.14,-0.07 0.04,-0.03 0.08,-0.05 0.1,-0.07 0.03,-0.02 0.05,-0.03 0.08,-0.03 0.04,0 0.07,0.02 0.1,0.07 l 0.21,0.36 c -0.13,0.12 -0.28,0.22 -0.45,0.29 -0.17,0.06 -0.35,0.1 -0.54,0.1 z" id="path28" />
	</g>
	<g id="g34">
		<path class="st0" d="m 228.11,89.09 c 0,0.07 -0.01,0.14 -0.04,0.21 -0.03,0.07 -0.07,0.12 -0.11,0.17 -0.05,0.05 -0.1,0.09 -0.17,0.12 -0.06,0.03 -0.13,0.04 -0.2,0.04 -0.07,0 -0.14,-0.01 -0.2,-0.04 -0.06,-0.03 -0.11,-0.07 -0.16,-0.12 -0.05,-0.05 -0.08,-0.11 -0.11,-0.17 -0.03,-0.06 -0.04,-0.13 -0.04,-0.21 0,-0.07 0.01,-0.14 0.04,-0.21 0.03,-0.07 0.06,-0.12 0.11,-0.17 0.05,-0.05 0.1,-0.09 0.16,-0.12 0.06,-0.03 0.13,-0.04 0.2,-0.04 0.07,0 0.14,0.01 0.2,0.04 0.06,0.03 0.12,0.07 0.17,0.12 0.05,0.05 0.09,0.11 0.11,0.17 0.02,0.06 0.04,0.13 0.04,0.21 z m -0.15,1.34 v 4.29 h -0.73 v -4.29 z" id="path32" />
	</g>
	<g id="g50">
		<g id="g40">
			<path class="st0" d="m 229.06,91.04 c 0.23,-0.23 0.47,-0.4 0.74,-0.51 0.26,-0.11 0.56,-0.17 0.88,-0.17 0.23,0 0.44,0.04 0.61,0.12 0.18,0.08 0.33,0.19 0.45,0.33 0.12,0.14 0.21,0.31 0.28,0.51 0.06,0.2 0.09,0.42 0.09,0.66 v 2.74 h -0.32 c -0.07,0 -0.13,-0.01 -0.16,-0.04 -0.04,-0.02 -0.07,-0.07 -0.09,-0.14 l -0.08,-0.41 c -0.11,0.1 -0.21,0.2 -0.32,0.28 -0.1,0.08 -0.21,0.15 -0.33,0.2 -0.11,0.05 -0.24,0.1 -0.37,0.13 -0.13,0.03 -0.27,0.05 -0.43,0.05 -0.16,0 -0.31,-0.02 -0.45,-0.07 -0.14,-0.05 -0.26,-0.12 -0.37,-0.21 -0.1,-0.09 -0.19,-0.21 -0.25,-0.35 -0.06,-0.14 -0.09,-0.31 -0.09,-0.51 0,-0.17 0.05,-0.33 0.13,-0.49 0.09,-0.16 0.24,-0.29 0.44,-0.42 0.2,-0.12 0.46,-0.22 0.79,-0.3 0.32,-0.08 0.72,-0.12 1.19,-0.13 v -0.33 c 0,-0.33 -0.07,-0.59 -0.21,-0.76 -0.14,-0.17 -0.34,-0.26 -0.61,-0.26 -0.18,0 -0.33,0.02 -0.45,0.07 -0.12,0.05 -0.23,0.1 -0.31,0.16 -0.09,0.06 -0.16,0.11 -0.23,0.16 -0.06,0.05 -0.13,0.07 -0.19,0.07 -0.05,0 -0.09,-0.01 -0.13,-0.04 -0.04,-0.03 -0.06,-0.06 -0.09,-0.1 z m 2.35,1.75 c -0.33,0.01 -0.62,0.04 -0.85,0.08 -0.23,0.05 -0.43,0.1 -0.57,0.17 -0.14,0.07 -0.26,0.15 -0.32,0.25 -0.07,0.1 -0.1,0.2 -0.1,0.32 0,0.11 0.02,0.21 0.05,0.29 0.03,0.08 0.08,0.15 0.14,0.2 0.06,0.05 0.13,0.09 0.22,0.11 0.08,0.02 0.17,0.04 0.27,0.04 0.13,0 0.24,-0.01 0.35,-0.04 0.11,-0.03 0.21,-0.07 0.3,-0.12 0.09,-0.05 0.18,-0.11 0.27,-0.18 0.09,-0.07 0.17,-0.15 0.25,-0.24 v -0.88 z" id="path36" />
			<path class="st0" d="m 234.36,94.79 c -0.33,0 -0.58,-0.09 -0.75,-0.28 -0.18,-0.19 -0.26,-0.46 -0.26,-0.82 v -2.63 h -0.5 c -0.04,0 -0.08,-0.01 -0.11,-0.04 -0.03,-0.03 -0.05,-0.07 -0.05,-0.12 v -0.3 l 0.68,-0.09 0.17,-1.33 c 0.01,-0.04 0.03,-0.08 0.05,-0.1 0.03,-0.03 0.07,-0.04 0.11,-0.04 h 0.37 v 1.48 h 1.2 v 0.55 h -1.2 v 2.57 c 0,0.18 0.04,0.32 0.13,0.4 0.08,0.09 0.19,0.13 0.32,0.13 0.08,0 0.14,-0.01 0.2,-0.03 0.06,-0.02 0.1,-0.04 0.14,-0.07 0.04,-0.03 0.08,-0.05 0.1,-0.07 0.03,-0.02 0.05,-0.03 0.08,-0.03 0.04,0 0.07,0.02 0.1,0.07 l 0.21,0.36 c -0.13,0.12 -0.28,0.22 -0.45,0.29 -0.17,0.06 -0.36,0.1 -0.54,0.1 z" id="path38" />
		</g>
		<g id="g48">
			<path class="st0" d="m 237.04,89.09 c 0,0.07 -0.01,0.14 -0.04,0.21 -0.03,0.07 -0.07,0.12 -0.11,0.17 -0.05,0.05 -0.1,0.09 -0.17,0.12 -0.06,0.03 -0.13,0.04 -0.2,0.04 -0.07,0 -0.14,-0.01 -0.2,-0.04 -0.06,-0.03 -0.11,-0.07 -0.16,-0.12 -0.05,-0.05 -0.08,-0.11 -0.11,-0.17 -0.03,-0.06 -0.04,-0.13 -0.04,-0.21 0,-0.07 0.01,-0.14 0.04,-0.21 0.03,-0.07 0.06,-0.12 0.11,-0.17 0.05,-0.05 0.1,-0.09 0.16,-0.12 0.06,-0.03 0.13,-0.04 0.2,-0.04 0.07,0 0.14,0.01 0.2,0.04 0.06,0.03 0.12,0.07 0.17,0.12 0.05,0.05 0.09,0.11 0.11,0.17 0.02,0.06 0.04,0.13 0.04,0.21 z m -0.15,1.34 v 4.29 h -0.73 v -4.29 z" id="path42" />
			<path class="st0" d="m 241.54,90.43 -1.68,4.29 h -0.65 l -1.68,-4.29 h 0.59 c 0.06,0 0.11,0.02 0.15,0.05 0.04,0.03 0.06,0.07 0.08,0.11 l 1.05,2.76 c 0.03,0.1 0.06,0.21 0.09,0.31 0.02,0.1 0.05,0.2 0.07,0.3 0.02,-0.1 0.05,-0.2 0.07,-0.3 0.03,-0.1 0.05,-0.2 0.09,-0.31 l 1.06,-2.76 c 0.02,-0.05 0.04,-0.08 0.08,-0.11 0.04,-0.03 0.08,-0.05 0.14,-0.05 z" id="path44" />
			<path class="st0" d="m 245.36,94.12 c -0.09,0.11 -0.2,0.21 -0.32,0.29 -0.13,0.08 -0.26,0.15 -0.4,0.21 -0.14,0.05 -0.29,0.09 -0.44,0.12 -0.15,0.03 -0.3,0.04 -0.45,0.04 -0.29,0 -0.55,-0.05 -0.79,-0.15 -0.24,-0.1 -0.45,-0.25 -0.62,-0.44 -0.18,-0.19 -0.31,-0.43 -0.41,-0.72 -0.1,-0.29 -0.15,-0.61 -0.15,-0.98 0,-0.3 0.05,-0.58 0.13,-0.84 0.09,-0.26 0.22,-0.48 0.38,-0.68 0.17,-0.19 0.37,-0.34 0.61,-0.45 0.24,-0.11 0.51,-0.16 0.81,-0.16 0.25,0 0.48,0.04 0.69,0.13 0.21,0.09 0.39,0.21 0.55,0.37 0.15,0.16 0.28,0.36 0.36,0.6 0.09,0.24 0.13,0.51 0.13,0.81 0,0.12 -0.01,0.2 -0.04,0.24 -0.02,0.04 -0.07,0.06 -0.14,0.06 h -2.76 c 0.01,0.27 0.04,0.51 0.11,0.71 0.06,0.2 0.15,0.37 0.27,0.5 0.11,0.13 0.25,0.23 0.41,0.3 0.16,0.07 0.33,0.1 0.53,0.1 0.18,0 0.34,-0.02 0.47,-0.06 0.13,-0.05 0.24,-0.09 0.34,-0.14 0.1,-0.05 0.18,-0.1 0.24,-0.14 0.06,-0.04 0.12,-0.06 0.16,-0.06 0.06,0 0.11,0.02 0.14,0.07 z m -0.58,-2.01 c 0,-0.17 -0.02,-0.33 -0.07,-0.48 -0.05,-0.15 -0.12,-0.27 -0.21,-0.38 -0.09,-0.1 -0.2,-0.19 -0.33,-0.24 -0.13,-0.06 -0.28,-0.09 -0.44,-0.09 -0.35,0 -0.62,0.1 -0.83,0.32 -0.2,0.21 -0.33,0.5 -0.38,0.87 z" id="path46" />
		</g>
	</g>
	<g id="g60">
		<path class="st0" d="m 200.59,90.36 c 0.3,0 0.57,0.05 0.82,0.16 0.24,0.1 0.45,0.25 0.62,0.45 0.17,0.19 0.3,0.42 0.39,0.7 0.09,0.27 0.14,0.58 0.14,0.91 0,0.34 -0.05,0.64 -0.14,0.91 -0.09,0.27 -0.22,0.5 -0.39,0.7 -0.17,0.19 -0.38,0.34 -0.62,0.44 -0.24,0.1 -0.51,0.15 -0.82,0.15 -0.3,0 -0.58,-0.05 -0.82,-0.15 -0.24,-0.1 -0.45,-0.25 -0.62,-0.44 -0.17,-0.19 -0.3,-0.42 -0.39,-0.7 -0.09,-0.27 -0.14,-0.58 -0.14,-0.91 0,-0.34 0.05,-0.64 0.14,-0.91 0.09,-0.27 0.22,-0.51 0.39,-0.7 0.17,-0.19 0.38,-0.34 0.62,-0.45 0.24,-0.1 0.52,-0.16 0.82,-0.16 z m 0,3.83 c 0.41,0 0.71,-0.14 0.91,-0.42 0.2,-0.28 0.3,-0.68 0.3,-1.19 0,-0.51 -0.1,-0.91 -0.3,-1.19 -0.2,-0.28 -0.51,-0.43 -0.91,-0.43 -0.21,0 -0.39,0.04 -0.54,0.11 -0.15,0.07 -0.28,0.18 -0.38,0.32 -0.1,0.14 -0.18,0.31 -0.23,0.51 -0.05,0.2 -0.08,0.43 -0.08,0.68 0,0.51 0.1,0.9 0.3,1.19 0.21,0.28 0.52,0.42 0.93,0.42 z" id="path52" />
		<path class="st0" d="m 204.08,91.05 c 0.09,-0.1 0.19,-0.2 0.29,-0.28 0.1,-0.09 0.21,-0.16 0.32,-0.22 0.11,-0.06 0.23,-0.11 0.36,-0.14 0.13,-0.03 0.26,-0.05 0.41,-0.05 0.23,0 0.42,0.04 0.6,0.12 0.17,0.08 0.32,0.19 0.43,0.33 0.12,0.14 0.2,0.31 0.26,0.51 0.06,0.2 0.09,0.42 0.09,0.67 v 2.73 h -0.73 v -2.73 c 0,-0.32 -0.07,-0.58 -0.21,-0.76 -0.14,-0.18 -0.36,-0.27 -0.65,-0.27 -0.22,0 -0.42,0.05 -0.6,0.16 -0.19,0.11 -0.36,0.25 -0.52,0.44 v 3.16 h -0.73 v -4.29 h 0.44 c 0.1,0 0.17,0.05 0.19,0.16 z" id="path54" />
		<path class="st0" d="m 207.76,91.04 c 0.23,-0.23 0.47,-0.4 0.74,-0.51 0.26,-0.11 0.56,-0.17 0.88,-0.17 0.23,0 0.44,0.04 0.61,0.12 0.18,0.08 0.33,0.19 0.45,0.33 0.12,0.14 0.21,0.31 0.28,0.51 0.06,0.2 0.09,0.42 0.09,0.66 v 2.74 h -0.32 c -0.07,0 -0.13,-0.01 -0.16,-0.04 -0.04,-0.02 -0.07,-0.07 -0.09,-0.14 l -0.08,-0.41 c -0.11,0.1 -0.21,0.2 -0.32,0.28 -0.1,0.08 -0.21,0.15 -0.33,0.2 -0.11,0.05 -0.24,0.1 -0.37,0.13 -0.13,0.03 -0.27,0.05 -0.43,0.05 -0.16,0 -0.31,-0.02 -0.45,-0.07 -0.14,-0.05 -0.26,-0.12 -0.37,-0.21 -0.1,-0.09 -0.19,-0.21 -0.25,-0.35 -0.06,-0.14 -0.09,-0.31 -0.09,-0.51 0,-0.17 0.05,-0.33 0.13,-0.49 0.09,-0.16 0.24,-0.29 0.44,-0.42 0.2,-0.12 0.46,-0.22 0.79,-0.3 0.32,-0.08 0.72,-0.12 1.19,-0.13 v -0.33 c 0,-0.33 -0.07,-0.59 -0.21,-0.76 -0.14,-0.17 -0.34,-0.26 -0.61,-0.26 -0.18,0 -0.33,0.02 -0.45,0.07 -0.12,0.05 -0.23,0.1 -0.31,0.16 -0.09,0.06 -0.16,0.11 -0.23,0.16 -0.06,0.05 -0.13,0.07 -0.19,0.07 -0.05,0 -0.09,-0.01 -0.13,-0.04 -0.04,-0.03 -0.06,-0.06 -0.09,-0.1 z m 2.34,1.75 c -0.33,0.01 -0.62,0.04 -0.85,0.08 -0.23,0.05 -0.43,0.1 -0.57,0.17 -0.15,0.07 -0.26,0.15 -0.32,0.25 -0.07,0.1 -0.1,0.2 -0.1,0.32 0,0.11 0.02,0.21 0.05,0.29 0.04,0.08 0.08,0.15 0.14,0.2 0.06,0.05 0.13,0.09 0.22,0.11 0.08,0.02 0.17,0.04 0.27,0.04 0.13,0 0.24,-0.01 0.35,-0.04 0.11,-0.03 0.21,-0.07 0.3,-0.12 0.09,-0.05 0.18,-0.11 0.27,-0.18 0.09,-0.07 0.17,-0.15 0.25,-0.24 v -0.88 z" id="path56" />
		<path class="st0" d="m 212.59,88.49 v 6.24 h -0.73 v -6.24 z" id="path58" />
	</g>
	<g id="g64">
		<path class="st0" d="m 197.85,89.09 c 0,0.07 -0.01,0.14 -0.04,0.21 -0.03,0.07 -0.07,0.12 -0.11,0.17 -0.05,0.05 -0.1,0.09 -0.17,0.12 -0.06,0.03 -0.13,0.04 -0.2,0.04 -0.07,0 -0.14,-0.01 -0.2,-0.04 -0.06,-0.03 -0.11,-0.07 -0.16,-0.12 -0.05,-0.05 -0.08,-0.11 -0.11,-0.17 -0.03,-0.06 -0.04,-0.13 -0.04,-0.21 0,-0.07 0.01,-0.14 0.04,-0.21 0.03,-0.07 0.06,-0.12 0.11,-0.17 0.05,-0.05 0.1,-0.09 0.16,-0.12 0.06,-0.03 0.13,-0.04 0.2,-0.04 0.07,0 0.14,0.01 0.2,0.04 0.06,0.03 0.12,0.07 0.17,0.12 0.05,0.05 0.09,0.11 0.11,0.17 0.02,0.06 0.04,0.13 0.04,0.21 z m -0.15,1.34 v 4.29 h -0.73 v -4.29 z" id="path62" />
	</g>
	<g id="g84">
		<path class="st1" d="m 124.36,92.83 c 0,1.08 0.41,1.85 1.64,1.85 0.88,0 1.38,-0.54 1.38,-0.54 l 0.07,0.27 c 0.03,0.1 0.07,0.17 0.19,0.17 h 0.2 c 0.11,0 0.2,-0.09 0.2,-0.19 v -3.7 c 0,-0.11 -0.09,-0.19 -0.19,-0.19 h -0.33 c -0.11,0 -0.2,0.09 -0.2,0.2 v 2.73 c 0,0 -0.46,0.58 -1.26,0.58 -0.59,0 -0.95,-0.38 -0.95,-1.16 v -2.16 c 0,-0.11 -0.09,-0.19 -0.19,-0.19 h -0.35 c -0.11,0 -0.2,0.09 -0.2,0.2 v 2.13 z" id="path66" />
		<path class="st2" d="m 135.5,91.98 c -1.09,0 -1.69,0.58 -1.69,1.36 0,0.82 0.56,1.34 1.3,1.34 0.66,0 1.09,-0.32 1.31,-0.53 l 0.08,0.28 c 0.03,0.09 0.06,0.15 0.18,0.15 h 0.2 c 0.11,0 0.2,-0.09 0.2,-0.19 v -2.27 c 0,-1.2 -0.26,-1.73 -1.34,-1.73 -0.79,0 -1.41,0.24 -1.47,0.27 -0.1,0.04 -0.16,0.1 -0.12,0.23 l 0.08,0.26 c 0.03,0.09 0.1,0.14 0.2,0.1 0.19,-0.07 0.69,-0.23 1.27,-0.23 0.6,0 0.7,0.35 0.69,1.11 0,-0.02 -0.44,-0.15 -0.89,-0.15 z m -0.28,2.09 c -0.46,0 -0.74,-0.32 -0.74,-0.73 0,-0.53 0.42,-0.82 1.02,-0.82 0.47,0 0.76,0.09 0.89,0.16 v 0.81 c -0.19,0.26 -0.64,0.58 -1.17,0.58 z" id="path68" />
		<path class="st3" d="m 138.07,92.54 c 0,1.23 0.99,2.14 2.17,2.14 0.72,0 1.3,-0.37 1.62,-0.86 0.06,-0.1 0.03,-0.21 -0.07,-0.29 l -0.12,-0.08 c -0.12,-0.08 -0.19,-0.1 -0.32,0.02 -0.24,0.23 -0.49,0.53 -1.12,0.53 -0.79,0 -1.4,-0.65 -1.4,-1.47 0,-0.82 0.61,-1.45 1.41,-1.45 0.41,0 0.76,0.19 0.97,0.43 0.1,0.08 0.15,0.18 0.31,0.04 l 0.2,-0.16 c 0.1,-0.07 0.12,-0.19 0.04,-0.29 -0.38,-0.47 -0.88,-0.72 -1.51,-0.72 -1.16,0.01 -2.18,0.96 -2.18,2.16 z" id="path70" />
		<path class="st2" d="m 144.57,91.98 c -1.09,0 -1.69,0.58 -1.69,1.36 0,0.82 0.56,1.34 1.3,1.34 0.66,0 1.09,-0.32 1.31,-0.53 l 0.08,0.28 c 0.03,0.09 0.06,0.15 0.18,0.15 h 0.2 c 0.11,0 0.2,-0.09 0.2,-0.19 v -2.27 c 0,-1.2 -0.26,-1.73 -1.34,-1.73 -0.79,0 -1.41,0.24 -1.47,0.27 -0.1,0.04 -0.16,0.1 -0.12,0.23 l 0.08,0.26 c 0.03,0.09 0.1,0.14 0.2,0.1 0.19,-0.07 0.69,-0.23 1.27,-0.23 0.6,0 0.7,0.35 0.69,1.11 0.01,-0.02 -0.44,-0.15 -0.89,-0.15 z m -0.28,2.09 c -0.46,0 -0.74,-0.32 -0.74,-0.73 0,-0.53 0.42,-0.82 1.02,-0.82 0.47,0 0.76,0.09 0.89,0.16 v 0.81 c -0.18,0.26 -0.64,0.58 -1.17,0.58 z" id="path72" />
		<path class="st2" d="m 149.17,90.39 c -1.27,0 -2.03,0.94 -2.03,2.14 0,1.18 0.85,2.16 1.93,2.16 0.79,0 1.3,-0.54 1.3,-0.54 l 0.06,0.28 c 0.02,0.09 0.08,0.16 0.18,0.16 h 0.22 c 0.11,0 0.2,-0.09 0.2,-0.19 v -5.81 c 0,-0.1 -0.1,-0.19 -0.2,-0.19 h -0.33 c -0.11,0 -0.2,0.09 -0.2,0.2 v 2.07 c 0.01,-0.02 -0.43,-0.28 -1.13,-0.28 z m -0.03,3.65 c -0.77,0 -1.26,-0.71 -1.26,-1.5 0,-0.82 0.47,-1.46 1.39,-1.46 0.58,0 1.03,0.25 1.03,0.25 v 2.05 c -0.01,-0.02 -0.4,0.66 -1.16,0.66 z" id="path74" />
		<path class="st2" d="m 154.1,90.39 c -1.28,0 -2.07,0.99 -2.07,2.15 0,1.18 0.79,2.15 2.07,2.15 0.73,0 1.3,-0.28 1.56,-0.47 0.16,-0.11 0.12,-0.17 0.04,-0.27 -0.03,-0.04 -0.06,-0.08 -0.09,-0.12 -0.03,-0.04 -0.06,-0.08 -0.09,-0.12 -0.08,-0.1 -0.14,-0.07 -0.26,0 -0.01,0.01 -0.02,0.01 -0.04,0.02 -0.24,0.14 -0.6,0.31 -1.05,0.31 -0.75,0 -1.38,-0.64 -1.42,-1.33 h 3.05 c 0.1,0 0.18,-0.07 0.19,-0.17 0.01,-0.07 0.02,-0.2 0.02,-0.28 0,-1.08 -0.8,-1.87 -1.91,-1.87 z m 1.18,1.75 h -2.52 c 0.07,-0.63 0.62,-1.13 1.33,-1.13 0.65,0 1.16,0.53 1.19,1.13 z" id="path76" />
		<path class="st3" d="m 157,94.39 c 0,0.1 0.1,0.19 0.2,0.19 h 0.33 c 0.11,0 0.2,-0.09 0.2,-0.2 v -2.73 c 0,0 0.45,-0.58 1.21,-0.58 0.65,0 1.01,0.38 1.01,1.16 v 2.16 c 0,0.1 0.1,0.19 0.2,0.19 h 0.34 c 0.11,0 0.2,-0.09 0.2,-0.2 v -2.15 c 0,-0.21 -0.02,-0.41 -0.05,-0.58 0.15,-0.13 0.6,-0.57 1.29,-0.57 0.61,0 0.95,0.39 0.95,1.16 v 2.16 c 0,0.11 0.09,0.19 0.19,0.19 h 0.35 c 0.11,0 0.2,-0.09 0.2,-0.2 v -2.15 c 0,-1.06 -0.41,-1.84 -1.64,-1.84 -0.85,0 -1.52,0.62 -1.58,0.67 -0.28,-0.43 -0.73,-0.67 -1.35,-0.67 -0.88,0 -1.38,0.54 -1.38,0.54 l -0.1,-0.32 C 157.55,90.54 157.5,90.5 157.4,90.5 h -0.2 c -0.11,0 -0.2,0.09 -0.2,0.19 z" id="path78" />
		<path class="st3" d="m 166.59,94.57 -0.86,2.1 c -0.07,0.14 0.01,0.26 0.17,0.26 h 0.39 c 0.07,0 0.15,-0.06 0.18,-0.12 l 2.75,-6.08 c 0.07,-0.13 0,-0.24 -0.16,-0.24 h -0.4 c -0.07,0 -0.15,0.05 -0.18,0.11 L 167,93.73 165.42,90.6 c -0.03,-0.06 -0.1,-0.11 -0.18,-0.11 h -0.47 c -0.16,0 -0.22,0.09 -0.16,0.23 z" id="path80" />
		<path class="st1" d="m 129.03,94.39 c 0,0.11 0.09,0.19 0.19,0.19 h 0.33 c 0.11,0 0.2,-0.09 0.2,-0.2 v -2.73 c 0,0 0.57,-0.58 1.37,-0.58 0.59,0 0.95,0.38 0.95,1.16 v 2.16 c 0,0.11 0.09,0.19 0.19,0.19 h 0.35 c 0.11,0 0.2,-0.09 0.2,-0.2 v -2.15 c 0,-1.06 -0.41,-1.84 -1.64,-1.84 -0.88,0 -1.48,0.54 -1.48,0.54 l -0.1,-0.32 c -0.02,-0.08 -0.07,-0.12 -0.17,-0.12 h -0.2 c -0.11,0 -0.2,0.09 -0.2,0.19 v 3.71 z" id="path82" />
	</g>
</g>
<g id="g247" transform="translate(-5.34,-1.2147232)">
	<path id="base_4_" class="st4" d="m 254.34,34.34 c -2.03,-2.3 -4.73,-3.56 -7.6,-3.56 v 0 c -0.21,0 -0.42,0.01 -0.63,0.02 L 69.36,42.34 H 69.33 69.3 C 60.65,43.19 55.71,48.44 55,57.5 l -0.08,1.05 c -0.17,-0.02 -0.34,-0.03 -0.5,-0.03 -0.25,0 -0.5,0.02 -0.74,0.07 -0.21,0.02 -0.45,0.08 -0.71,0.17 v -3.7 c 1.84,-1.19 2.54,-4.24 3.64,-9.62 0.14,-0.7 0.29,-1.41 0.44,-2.12 1.35,-3 3.34,-5.79 5.28,-8.49 3.34,-4.66 6.79,-9.48 6.43,-15.15 L 68.53,18.85 C 64.76,11.47 59.72,6.76 53.13,4.44 51.15,3.73 49.37,3.35 47.94,3.05 47.35,2.93 46.84,2.82 46.41,2.71 L 46.26,2.68 C 42.59,2 38.62,1.37 34.53,1.37 32.79,1.37 31.18,1.48 29.58,1.71 27.57,2 25.52,2.93 23.35,3.92 21.02,4.98 18.61,6.07 16.5,6.22 l -0.52,0.1 C 11.31,7.86 9.79,10 8.56,11.73 8.47,11.85 8.39,11.97 8.3,12.1 L 8.09,12.46 C 6.56,15.79 6.18,19.2 6.95,22.62 L 7,22.78 c 0.57,1.82 1.25,3.59 1.9,5.29 1.3,3.39 2.52,6.6 3.02,10.19 l 0.26,0.76 c 0.5,0.88 0.88,2.22 1.3,3.64 0.85,2.94 1.91,6.59 4.75,9.49 l 0.01,0.29 v 4.03 c 0,0 -10.54,5.09 -13.6,7.36 -1.55,1.15 -3.58,3.96 0.14,6.31 2.86,1.81 11.96,6.57 11.93,6.84 -0.32,3.24 0.79,6.16 1.84,7.39 1.72,2.03 4.54,3.19 7.75,3.19 3.07,0 6.09,-1.07 8.09,-2.85 0.5,-0.45 0.93,-0.93 1.28,-1.42 0.36,0.5 0.78,0.98 1.28,1.42 1.99,1.78 5.02,2.85 8.09,2.85 3.21,0 6.03,-1.16 7.75,-3.19 1.13,-1.33 2.35,-3.71 1.72,-7.43 L 54.4,76.33 c 0.06,0 1.63,-0.78 1.63,-0.78 0,0 0,0.01 0.01,0.13 0.18,2.03 0.49,5.59 5.84,6.05 l 0.06,0.01 H 62 l 184.18,4.96 c 0.09,0 0.18,0 0.28,0 2.93,0 5.68,-1.24 7.75,-3.48 2.02,-2.19 3.13,-5.05 3.13,-8.07 v -32.8 c 0.01,-2.97 -1.06,-5.81 -3,-8.01 z" style="display:none" />
	<linearGradient id="brown_1_" gradientUnits="userSpaceOnUse" x1="57.122299" y1="58.737801" x2="255.2258" y2="58.737801" gradientTransform="translate(3.6950904,-1.1757106)">
		<stop offset="0" style="stop-color:#3B2519" id="stop89" />
		<stop offset="0.0299" style="stop-color:#3F2719" id="stop91" />
		<stop offset="0.2736" style="stop-color:#5C331B" id="stop93" />
		<stop offset="0.4847" style="stop-color:#6E3B1D" id="stop95" />
		<stop offset="0.6382" style="stop-color:#743E1D" id="stop97" />
		<stop offset="0.7421" style="stop-color:#6F3C1C" id="stop99" />
		<stop offset="0.8624" style="stop-color:#61351A" id="stop101" />
		<stop offset="0.9905" style="stop-color:#4A2B17" id="stop103" />
		<stop offset="1" style="stop-color:#482A17" id="stop105" />
	</linearGradient>
	<path id="brown_4_" class="st5" d="m 73.19509,43.284289 176.74,-11.54 c 4.93,-0.32 8.98,4.24 8.98,9.43 v 32.79 c 0,5.18 -4.04,9.56 -8.98,9.43 l -184.17,-4.96 c -3.79,-0.33 -3.76,-2.55 -3.96,-4.71 13.03,-2.36 5.67,-18.05 -0.98,-17.23 0.73,-9.44 6.18,-12.6 12.37,-13.21 z" style="display:none;fill:url(#brown_1_)" />
	<g id="face_4_" style="display:inline">
		<g id="g123" style="display:inline">
			<path class="st6" d="m 57.4,61.65 v 0 c 2.2,0.72 4.01,1.74 5.42,3.06 0.31,0.22 0.46,0.47 0.46,0.76 0,0.47 -0.35,0.92 -1.06,1.36 -0.83,0.52 -2.07,1.44 -3.71,2.76 -1.52,1.21 -2.75,2.09 -3.68,2.65 -0.18,0.09 -0.36,0.14 -0.54,0.14 -0.27,0 -0.51,-0.1 -0.7,-0.28 -0.2,-0.19 -0.3,-0.41 -0.3,-0.66 0,-0.22 0.08,-0.41 0.24,-0.6 0.22,-0.36 0.72,-0.76 1.52,-1.19 0.52,-0.27 1.17,-0.71 1.95,-1.33 0.94,-0.76 1.59,-1.26 1.95,-1.49 0.79,-0.4 1.19,-0.68 1.19,-0.84 0,-0.04 -0.01,-0.07 -0.03,-0.11 -0.43,-0.76 -1.15,-1.33 -2.14,-1.71 -0.88,-0.25 -1.78,-0.51 -2.68,-0.79 -1.06,-0.32 -1.85,-0.78 -2.36,-1.38 -0.04,-0.05 -0.05,-0.12 -0.05,-0.19 0,-0.22 0.13,-0.46 0.38,-0.72 0.25,-0.26 0.5,-0.39 0.73,-0.39 0.14,-0.04 0.29,-0.05 0.43,-0.05 0.42,0 0.93,0.13 1.54,0.38 0.47,0.2 0.95,0.4 1.44,0.62 M 15.15,60.76 c 0.41,0 0.75,0.11 1.02,0.33 0.26,0.22 0.39,0.47 0.39,0.76 0,0.22 -0.08,0.41 -0.24,0.57 -0.6,0.65 -1.82,1.35 -3.68,2.09 -1.72,0.69 -2.87,1.48 -3.47,2.38 1.01,0.61 2.34,1.28 3.98,2 2.62,1.17 3.97,1.78 4.06,1.82 0.34,0.16 0.51,0.42 0.51,0.79 0.04,0.45 -0.14,0.83 -0.53,1.15 -0.39,0.32 -0.84,0.47 -1.34,0.47 -0.2,0 -0.39,-0.04 -0.57,-0.11 C 15.06,72.79 14.77,72.54 14.39,72.25 12.01,70.95 9.46,69.71 6.75,68.54 6.48,68.43 6.21,68.33 5.94,68.24 5.6,68.08 5.4,67.84 5.34,67.54 c 0,-0.78 0.34,-1.5 1.03,-2.17 0.83,-0.67 2.2,-1.43 4.12,-2.3 1.86,-0.83 3.2,-1.6 4.04,-2.3 0,-0.01 0.2,-0.01 0.62,-0.01 z" id="path109" />
			<path class="st6" d="m 32.14,60.72 c -0.45,-0.65 -0.87,-1.11 -1.25,-1.38 -0.38,-0.27 -0.82,-0.4 -1.33,-0.4 -0.18,0 -0.34,0.03 -0.47,0.08 l -3,1.04 c -0.17,0.06 -0.37,0.08 -0.59,0.08 -0.4,0 -0.72,-0.09 -0.96,-0.28 -0.25,-0.18 -0.55,-0.55 -0.9,-1.1 l -0.83,0.55 c 0.52,0.75 0.97,1.25 1.33,1.49 0.37,0.25 0.83,0.37 1.4,0.37 0.25,0 0.5,-0.04 0.74,-0.11 l 2.75,-1 c 0.18,-0.07 0.38,-0.11 0.59,-0.11 0.35,0 0.64,0.07 0.85,0.22 0.21,0.14 0.51,0.47 0.89,0.99 l 0.78,-0.44" id="path111" />
			<path class="st7" d="m 52.41,77.29 c 1.51,9.02 -9.52,9.89 -14.05,5.84 -3.13,-2.8 -2.25,-6.69 2.24,-6.45 3.95,0.21 6.28,5.31 11.81,0.61" id="path113" />
			<path class="st7" d="m 18.91,77.29 c -1.51,9.02 9.52,9.89 14.05,5.84 3.13,-2.8 2.25,-6.69 -2.24,-6.45 -3.95,0.21 -6.28,5.31 -11.81,0.61" id="path115" />
			<path class="st6" d="m 29.74,64.2 c -0.5,-0.35 -1.12,-0.53 -1.86,-0.53 -0.89,0 -1.61,0.27 -2.17,0.8 -0.65,0.59 -0.9,1.43 -0.75,2.53 0.09,0.89 0.41,1.67 0.95,2.35 0.55,0.68 1.21,1.02 1.97,1.02 0.47,0 0.96,-0.13 1.46,-0.4 0.89,-0.53 1.33,-1.55 1.33,-3.06 0,-1.36 -0.31,-2.26 -0.93,-2.71 z m -1.9,3.59 c -0.52,0 -0.95,-0.42 -0.95,-0.95 0,-0.52 0.42,-0.95 0.95,-0.95 0.52,0 0.95,0.42 0.95,0.95 0,0.53 -0.43,0.95 -0.95,0.95 z" id="path117" />
			<path class="st6" d="m 36.34,75.91 c 0.28,0 0.55,-0.05 0.8,-0.15 0.25,-0.1 0.48,-0.22 0.69,-0.38 0.21,-0.16 0.4,-0.34 0.57,-0.53 0.17,-0.2 0.32,-0.39 0.44,-0.6 0.13,-0.2 0.23,-0.39 0.31,-0.58 0.08,-0.18 0.14,-0.33 0.17,-0.46 C 39.31,73.19 39.3,73.16 39.28,73.12 39.26,73.09 39.24,73.06 39.23,73.03 39.21,73.01 39.19,73 39.18,73 c -0.24,0.44 -0.5,0.8 -0.8,1.08 -0.3,0.28 -0.63,0.48 -0.98,0.61 -0.36,0.13 -0.75,0.19 -1.16,0.19 -0.36,0 -0.68,-0.05 -0.96,-0.14 -0.29,-0.09 -0.54,-0.23 -0.77,-0.4 -0.23,-0.18 -0.43,-0.39 -0.62,-0.63 -0.18,-0.24 -0.35,-0.52 -0.5,-0.82 -0.01,0 -0.02,0.01 -0.04,0.03 -0.02,0.02 -0.04,0.05 -0.05,0.08 -0.02,0.03 -0.02,0.05 -0.03,0.07 0.14,0.39 0.31,0.75 0.52,1.1 0.2,0.34 0.43,0.64 0.69,0.9 0.26,0.26 0.54,0.47 0.86,0.62 0.3,0.13 0.64,0.21 1,0.22" id="path119" />
			<path class="st6" d="m 45.13,64.14 c -0.5,-0.35 -1.12,-0.53 -1.86,-0.53 -0.89,0 -1.61,0.27 -2.17,0.8 -0.65,0.59 -0.9,1.44 -0.75,2.53 0.09,0.89 0.41,1.67 0.95,2.35 0.55,0.68 1.21,1.02 1.97,1.02 0.47,0 0.96,-0.13 1.46,-0.4 0.89,-0.53 1.33,-1.55 1.33,-3.06 0.01,-1.37 -0.3,-2.27 -0.93,-2.71 z M 42.95,67.9 C 42.43,67.9 42,67.47 42,66.95 42,66.43 42.42,66 42.95,66 c 0.52,0 0.95,0.42 0.95,0.95 0,0.53 -0.43,0.95 -0.95,0.95 z" id="path121" />
		</g>
		<g id="Cap_4_" style="stroke:#5b4538;stroke-width:2.3;stroke-linecap:round;stroke-linejoin:round;stroke-dasharray:none;stroke-opacity:1">
			<g id="g144" style="stroke:#5b4538;stroke-width:4.3;stroke-linecap:round;stroke-linejoin:round;stroke-dasharray:none;stroke-opacity:1">
				<linearGradient id="SVGID_1_" gradientUnits="userSpaceOnUse" x1="8.8354998" y1="28.462601" x2="66.658897" y2="28.462601">
					<stop offset="0.0397" style="stop-color:#F9F9EC" id="stop125" />
					<stop offset="0.4183" style="stop-color:#F9F9EC" id="stop127" />
					<stop offset="0.4932" style="stop-color:#F3F1E2" id="stop129" />
					<stop offset="0.6217" style="stop-color:#E4DDC6" id="stop131" />
					<stop offset="0.7873" style="stop-color:#CCBC9A" id="stop133" />
					<stop offset="0.7969" style="stop-color:#CABA97" id="stop135" />
					<stop offset="1" style="stop-color:#BAA685" id="stop137" />
				</linearGradient>
				<path class="st8" d="M 51.65,53.38 C 53.19,52.71 53.98,47.51 55.02,42.67 58.77,34.1 67.14,27.79 66.64,19.82 59.77,6.37 50.15,5.89 46.03,4.82 40.69,3.83 35.36,3.1 30.03,3.87 c -3.79,0.56 -8.7,4.21 -13.24,4.52 -4.33,1.43 -5.41,3.33 -6.62,5 -1.35,2.94 -1.66,5.87 -1,8.81 1.66,5.28 4.21,10.08 5,15.83 1.75,3.09 1.87,8.93 5.87,12.85 12.24,-5.83 22.24,-1.31 31.61,2.5 z" id="path140" style="fill:none;stroke:#5b4538;stroke-width:4.3;stroke-linecap:round;stroke-linejoin:round;stroke-dasharray:none;stroke-opacity:1" />
				<path class="st9" d="M 51.5,53.44 50.35,52.97 C 41.16,49.22 31.65,45.33 19.93,50.92 L 19.86,50.95 19.81,50.9 C 17.2,48.34 16.24,45.03 15.4,42.1 14.95,40.56 14.53,39.11 13.92,38.02 L 13.91,37.98 C 13.38,34.16 12.06,30.69 10.78,27.34 10.14,25.66 9.47,23.92 8.92,22.16 c -0.67,-2.98 -0.33,-5.97 1,-8.88 0.1,-0.14 0.19,-0.27 0.28,-0.4 1.11,-1.56 2.36,-3.33 6.4,-4.66 2.5,-0.18 5.08,-1.35 7.57,-2.48 2.04,-0.93 3.97,-1.8 5.69,-2.05 5.07,-0.73 10.07,-0.15 16.02,0.95 0.48,0.12 1.01,0.24 1.62,0.37 4.53,0.96 12.96,2.73 19.06,14.69 l 0.01,0.04 c 0.31,4.96 -2.78,9.28 -6.06,13.85 -2.03,2.84 -4.14,5.78 -5.57,9.05 -0.16,0.76 -0.32,1.55 -0.48,2.33 -0.86,4.21 -1.6,7.85 -2.95,8.44 z M 31.86,47.91 c 6.66,0 12.68,2.46 18.58,4.87 l 1.06,0.43 c 1.22,-0.6 1.98,-4.33 2.79,-8.27 0.16,-0.78 0.32,-1.57 0.49,-2.35 1.45,-3.31 3.56,-6.26 5.6,-9.11 3.25,-4.54 6.32,-8.82 6.02,-13.7 C 60.33,7.94 52.29,6.25 47.48,5.23 46.86,5.1 46.33,4.99 45.85,4.86 39.93,3.77 34.94,3.19 29.9,3.92 c -1.69,0.25 -3.6,1.12 -5.63,2.03 -2.51,1.14 -5.1,2.31 -7.62,2.49 -3.95,1.31 -5.18,3.04 -6.27,4.58 -0.09,0.13 -0.18,0.25 -0.27,0.38 -1.31,2.85 -1.64,5.8 -0.98,8.72 0.55,1.75 1.21,3.48 1.86,5.16 1.28,3.35 2.61,6.82 3.14,10.66 0.62,1.1 1.04,2.56 1.49,4.1 0.83,2.88 1.78,6.14 4.31,8.66 4.23,-2.01 8.18,-2.79 11.93,-2.79 z" id="path142" style="fill:none;stroke:#5b4538;stroke-width:4.3;stroke-linecap:round;stroke-linejoin:round;stroke-dasharray:none;stroke-opacity:1" />
			</g>
			<g id="g165" style="display:inline;stroke:#5b4538;stroke-width:4.7;stroke-linecap:round;stroke-linejoin:round;stroke-dasharray:none;stroke-opacity:1">
				<linearGradient id="SVGID_2_" gradientUnits="userSpaceOnUse" x1="20.268999" y1="49.201599" x2="50.973499" y2="49.201599">
					<stop offset="0" style="stop-color:#F9F9EC" id="stop146" />
					<stop offset="0.0526" style="stop-color:#F9F9EC" id="stop148" />
					<stop offset="0.3844" style="stop-color:#F9F9EC" id="stop150" />
					<stop offset="0.5145" style="stop-color:#F5F4E5" id="stop152" />
					<stop offset="0.7094" style="stop-color:#EAE5D0" id="stop154" />
					<stop offset="0.9441" style="stop-color:#D9CCAF" id="stop156" />
					<stop offset="0.9987" style="stop-color:#D4C6A6" id="stop158" />
				</linearGradient>
				<path class="st10" d="m 20.39,54.28 c 4.41,-2.34 15.45,-8.13 30.23,2.02 0.42,-2.38 0.46,-4.76 0.13,-7.14 C 50.33,43.53 28.27,36.64 20.27,49.04 l 0.12,5.24" id="path161" style="fill:#c8bca8;fill-opacity:1;stroke:#5b4538;stroke-width:4.7;stroke-linecap:round;stroke-linejoin:round;stroke-dasharray:none;stroke-opacity:1" />
				<path class="st9" d="M 50.66,56.38 50.6,56.34 c -6.33,-4.35 -12.71,-6.26 -18.98,-5.69 -5.18,0.47 -9.1,2.55 -11.21,3.67 l -0.06,0.03 v -0.07 l -0.12,-5.25 0.01,-0.01 c 2.16,-3.34 5.43,-5.52 9.74,-6.46 3.53,-0.78 7.65,-0.65 11.6,0.36 5.26,1.34 9.05,3.91 9.22,6.24 0.33,2.37 0.29,4.78 -0.13,7.15 z M 33.79,50.46 c 5.56,0 11.2,1.93 16.8,5.77 0.4,-2.34 0.44,-4.72 0.11,-7.06 C 50.53,46.91 46.68,44.31 41.54,43 37.61,42 33.5,41.87 29.98,42.64 c -4.28,0.94 -7.54,3.1 -9.68,6.41 l 0.12,5.15 c 2.13,-1.13 6.03,-3.18 11.18,-3.65 0.74,-0.06 1.47,-0.09 2.19,-0.09 z" id="path163" style="stroke:#5b4538;stroke-width:4.7;stroke-linecap:round;stroke-linejoin:round;stroke-dasharray:none;stroke-opacity:1" />
			</g>
			<g id="g218" style="display:none;stroke:#5b4538;stroke-width:2.3;stroke-linecap:round;stroke-linejoin:round;stroke-dasharray:none;stroke-opacity:1">
				<g id="_x31__4_" style="stroke:#5b4538;stroke-width:2.3;stroke-linecap:round;stroke-linejoin:round;stroke-dasharray:none;stroke-opacity:1">
					<linearGradient id="SVGID_3_" gradientUnits="userSpaceOnUse" x1="10.162" y1="21.8836" x2="15.7322" y2="21.8836">
						<stop offset="0" style="stop-color:#E8DBCA" id="stop167" />
						<stop offset="1" style="stop-color:#F2ECDE" id="stop169" />
					</linearGradient>
					<path class="st11" d="M 14.18,12.5 C 13.5,15.93 16.54,26.76 15.52,32.44 15,29.46 13.1,23.55 13.18,20.22 12.26,18.22 11.34,15.8 10.33,14.87 9.42,14.04 12.42,9.09 14.18,12.5" id="path172" style="fill:url(#SVGID_3_);stroke:#5b4538;stroke-width:2.3;stroke-linecap:round;stroke-linejoin:round;stroke-dasharray:none;stroke-opacity:1" />
					<path class="st12" d="M 21.11,47.36 C 21.1,47.35 21.1,47.35 21.1,47.34 17.1,42.66 15.45,34.6 14.06,27.81 12.96,22.42 12.02,17.82 10.2,16.37 L 10.19,16.36 C 9.96,16.06 9.83,15.71 9.78,15.34 9.69,14.7 9.85,14 10.18,13.35 c 0.32,-0.65 0.81,-1.23 1.39,-1.63 0.4,-0.28 0.85,-0.46 1.31,-0.52 l 0.01,0.09 c -0.45,0.05 -0.88,0.24 -1.27,0.5 -0.43,0.59 -0.75,0.97 -1.07,1.6 -0.89,1.78 0.96,1.69 1.69,2.66 1.84,1.48 1.99,6.33 3.1,11.74 1.39,6.78 1.84,14.83 5.82,19.49 v 0 c 0.01,0.01 0.01,0.01 0.01,0.02 l -0.06,0.06" id="path174" style="stroke:#5b4538;stroke-width:2.3;stroke-linecap:round;stroke-linejoin:round;stroke-dasharray:none;stroke-opacity:1" />
				</g>
				<g id="_x32__4_" style="stroke:#5b4538;stroke-width:2.3;stroke-linecap:round;stroke-linejoin:round;stroke-dasharray:none;stroke-opacity:1">
					<linearGradient id="SVGID_4_" gradientUnits="userSpaceOnUse" x1="18.402" y1="15.8332" x2="21.459801" y2="20.2955">
						<stop offset="0" style="stop-color:#ECE1D1" id="stop177" />
						<stop offset="0.4318" style="stop-color:#EEE6D9" id="stop179" />
						<stop offset="1" style="stop-color:#EFE9DE" id="stop181" />
					</linearGradient>
					<path class="st13" d="m 20.96,11.1 c -0.68,3.43 1.06,11.3 0.05,16.99 -0.52,-2.98 -2.42,-8.89 -2.34,-12.22 -0.92,-2 -2.02,-4.28 -2.67,-5.46 -0.59,-1.06 2.45,-2.49 4.96,0.69" id="path184" style="fill:url(#SVGID_4_);stroke:#5b4538;stroke-width:2.3;stroke-linecap:round;stroke-linejoin:round;stroke-dasharray:none;stroke-opacity:1" />
					<path class="st12" d="M 19.63,9.9 C 18.76,9.31 18.41,9.34 17.66,9.44 c -0.31,0.04 -0.57,0.14 -0.77,0.28 -0.2,0.14 -0.33,0.34 -0.37,0.58 -0.04,0.36 -0.28,0.42 0.05,1.08 v 0 c 2.22,3.01 3.91,8 4.38,13.31 0.59,6.73 -0.19,14.19 4.27,19.47 l -0.07,0.06 C 20.67,38.91 20.01,31.44 19.42,24.7 18.95,19.4 18.52,14.55 16.32,11.56 v 0 c -0.46,-0.62 -0.6,-1.13 -0.53,-1.53 0.05,-0.27 0.19,-0.48 0.41,-0.64 0.21,-0.16 0.49,-0.26 0.82,-0.3 0.77,-0.1 1.78,0.13 2.67,0.74 L 19.63,9.9" id="path186" style="stroke:#5b4538;stroke-width:2.3;stroke-linecap:round;stroke-linejoin:round;stroke-dasharray:none;stroke-opacity:1" />
				</g>
				<g id="_x33__4_" style="stroke:#5b4538;stroke-width:2.3;stroke-linecap:round;stroke-linejoin:round;stroke-dasharray:none;stroke-opacity:1">
					<linearGradient id="SVGID_5_" gradientUnits="userSpaceOnUse" x1="26.808399" y1="19.2871" x2="32.4725" y2="19.2871">
						<stop offset="0" style="stop-color:#ECE1D1" id="stop189" />
						<stop offset="1" style="stop-color:#EDE4D5" id="stop191" />
					</linearGradient>
					<path class="st14" d="M 31.87,5.08 C 33.93,8.52 30.14,24 29.47,33.73 29.41,34.55 22.15,1.62 31.87,5.08" id="path194" style="fill:url(#SVGID_5_);stroke:#5b4538;stroke-width:2.3;stroke-linecap:round;stroke-linejoin:round;stroke-dasharray:none;stroke-opacity:1" />
					<path class="st15" d="M 31,42.32 C 28.65,36.2 26.13,25.58 25.74,17.2 c -0.15,-3.3 0.02,-6.26 0.67,-8.46 0.65,-2.21 1.78,-3.65 3.53,-3.91 0.57,-0.09 1.21,-0.04 1.92,0.14 l -0.03,0.09 c -0.7,-0.18 -1.35,-0.03 -1.91,0.06 -1.46,0.33 -1.29,1.25 -2.25,3.32 -0.64,2.19 -1,4.9 -0.71,8.2 1.25,8.17 2.78,19.31 4.11,25.65 L 31,42.32" id="path196" style="stroke:#5b4538;stroke-width:2.3;stroke-linecap:round;stroke-linejoin:round;stroke-dasharray:none;stroke-opacity:1" />
				</g>
				<path id="_x34__4_" class="st16" d="M 37.84,41.79 C 37.75,41.13 37.66,40.45 37.56,39.76 36.03,28.74 34.16,15.26 40.72,5.57 l 0.08,0.05 c -2.69,7.17 -3.05,20.82 -3.37,25.23 -0.14,1.9 0.08,5.98 0.23,8.89 0.09,0.68 0.19,1.36 0.28,2.03 l -0.1,0.02" style="stroke:#5b4538;stroke-width:2.3;stroke-linecap:round;stroke-linejoin:round;stroke-dasharray:none;stroke-opacity:1" />
				<linearGradient id="_x35__1_" gradientUnits="userSpaceOnUse" x1="48.7243" y1="18.9074" x2="48.577599" y2="26.3957">
					<stop offset="0" style="stop-color:#BAA68A" id="stop200" />
					<stop offset="1" style="stop-color:#C7BAA0" id="stop202" />
				</linearGradient>
				<path id="_x35__4_" class="st17" d="M 44.96,43.21 C 45.19,37.5 45.8,30.82 46.35,25.03 47.73,17.73 51.44,14.28 52.41,6.9 l 0.02,-0.09 c -3.54,5.77 -5.51,12.01 -6.54,18.24 -1.02,6.23 -1.1,12.45 -0.83,18.16 h -0.1" style="fill:url(#_x35__1_);stroke:#5b4538;stroke-width:2.3;stroke-linecap:round;stroke-linejoin:round;stroke-dasharray:none;stroke-opacity:1" />
				<g id="_x36__4_" style="stroke:#5b4538;stroke-width:2.3;stroke-linecap:round;stroke-linejoin:round;stroke-dasharray:none;stroke-opacity:1">
					<linearGradient id="SVGID_6_" gradientUnits="userSpaceOnUse" x1="52.062199" y1="29.1551" x2="62.118801" y2="29.1551">
						<stop offset="0" style="stop-color:#BDAE99" id="stop206" />
						<stop offset="0.2551" style="stop-color:#BFB19C" id="stop208" />
						<stop offset="1" style="stop-color:#C2B5A1" id="stop210" />
					</linearGradient>
					<path class="st18" d="M 62.12,15.57 C 59.17,24.73 55.63,33.68 52.06,42.74 52.16,30.75 58.59,16.31 62.12,15.57" id="path213" style="fill:url(#SVGID_6_);stroke:#5b4538;stroke-width:2.3;stroke-linecap:round;stroke-linejoin:round;stroke-dasharray:none;stroke-opacity:1" />
					<path class="st12" d="m 50.37,46.78 c 1.56,-1.63 1.67,-4.13 1.81,-7.03 0.12,-2.68 0.26,-5.7 1.57,-8.69 0.03,-0.11 0.09,-0.3 0.16,-0.56 0.87,-3.03 4.35,-15.21 8.41,-14.99 l -0.01,0.09 c -3.19,-0.12 -7.24,11.93 -8.2,14.94 -0.07,0.25 -0.09,0.41 -0.13,0.53 v 0.01 c -1.14,2.97 -1.21,6 -1.59,8.67 -0.13,2.91 -0.38,5.43 -1.96,7.08 l -0.06,-0.05" id="path215" style="stroke:#5b4538;stroke-width:2.3;stroke-linecap:round;stroke-linejoin:round;stroke-dasharray:none;stroke-opacity:1" />
				</g>
			</g>
		</g>
	</g>
	<g id="name_4_" style="display:none">
		<path class="st4" d="m 90.21,70.23 c 0,0.19 -0.12,0.44 -0.38,0.76 -2.22,2.63 -5.17,3.95 -8.86,3.95 -3.77,0 -6.82,-1.28 -9.16,-3.84 -2.28,-2.48 -3.43,-5.61 -3.43,-9.38 0,-3.66 1.12,-6.76 3.35,-9.3 2.33,-2.66 5.3,-4 8.9,-4 3.91,0 6.98,1.19 9.2,3.59 0.24,0.26 0.36,0.5 0.36,0.7 0,0.23 -0.41,1.08 -1.26,2.54 -0.84,1.47 -1.37,2.29 -1.58,2.47 -0.1,0.09 -0.22,0.14 -0.36,0.14 -0.06,0 -0.36,-0.24 -0.91,-0.72 -0.65,-0.58 -1.29,-1.03 -1.92,-1.35 -0.95,-0.48 -1.95,-0.72 -2.97,-0.72 -1.77,0 -3.19,0.66 -4.25,1.98 -0.98,1.22 -1.47,2.74 -1.47,4.55 0,1.82 0.49,3.35 1.47,4.6 1.06,1.34 2.48,2.02 4.25,2.02 1.05,0 2.05,-0.23 2.99,-0.69 0.61,-0.3 1.24,-0.72 1.89,-1.26 0.53,-0.46 0.82,-0.68 0.88,-0.68 0.12,0 0.24,0.07 0.36,0.2 0.19,0.22 0.72,0.97 1.58,2.25 0.88,1.33 1.32,2.06 1.32,2.19 z" id="path222" />
		<path class="st4" d="m 116.16,61.69 c 0,3.75 -1.2,6.89 -3.6,9.43 -2.45,2.57 -5.56,3.86 -9.31,3.86 -3.73,0 -6.83,-1.3 -9.29,-3.89 -2.42,-2.54 -3.62,-5.67 -3.62,-9.4 0,-3.74 1.21,-6.88 3.62,-9.43 2.47,-2.61 5.56,-3.91 9.29,-3.91 3.71,0 6.8,1.3 9.27,3.91 2.43,2.57 3.64,5.72 3.64,9.43 z m -6.86,-0.04 c 0,-1.8 -0.55,-3.34 -1.65,-4.6 -1.15,-1.32 -2.62,-1.98 -4.4,-1.98 -1.7,0 -3.15,0.68 -4.33,2.06 -1.15,1.32 -1.73,2.84 -1.73,4.56 0,1.84 0.54,3.37 1.61,4.6 1.14,1.29 2.62,1.93 4.44,1.93 1.7,0 3.15,-0.68 4.35,-2.04 1.14,-1.3 1.71,-2.81 1.71,-4.53 z" id="path224" />
		<path class="st4" d="m 141.34,61.53 c 0,3.53 -1.14,6.6 -3.43,9.19 -2.02,2.32 -4.85,3.54 -8.49,3.66 -0.7,0.02 -2.63,0.04 -5.78,0.04 -0.59,0 -1.48,-0.02 -2.67,-0.06 -1.19,-0.04 -2.08,-0.06 -2.67,-0.06 -0.35,0 -0.53,-0.14 -0.53,-0.41 0,-1.32 0.06,-3.31 0.15,-5.96 0.11,-2.65 0.15,-4.63 0.15,-5.96 0,-1.38 -0.05,-3.45 -0.15,-6.21 -0.1,-2.76 -0.15,-4.82 -0.15,-6.2 0,-0.25 0.18,-0.4 0.53,-0.45 0.86,-0.09 2.26,-0.14 4.22,-0.14 3.72,0 6.13,0.06 7.23,0.16 2.86,0.29 5.1,1.01 6.72,2.17 1.52,1.08 2.72,2.6 3.6,4.54 0.85,1.85 1.27,3.74 1.27,5.69 z m -6.93,0 c 0,-2.03 -0.61,-3.69 -1.83,-4.98 -1.23,-1.34 -2.86,-2 -4.89,-2 -1.86,0 -2.79,0.25 -2.79,0.74 0,0.71 -0.01,1.78 -0.04,3.2 -0.02,1.43 -0.04,2.49 -0.04,3.2 0,0.7 0.01,1.75 0.04,3.14 0.02,1.4 0.04,2.46 0.04,3.17 0,0.52 0.96,0.78 2.89,0.78 2.09,0 3.73,-0.7 4.93,-2.07 1.12,-1.32 1.69,-3.05 1.69,-5.18 z" id="path226" />
		<path class="st4" d="m 161.54,68.7 c 0,0.52 -0.1,1.46 -0.31,2.85 -0.22,1.5 -0.41,2.39 -0.58,2.68 -0.14,0.23 -0.35,0.34 -0.6,0.34 -0.11,0 -0.29,-0.02 -0.54,-0.06 -0.88,-0.12 -3.45,-0.18 -7.72,-0.18 -0.93,0 -2.31,-0.01 -4.15,-0.02 -1.83,-0.01 -3.21,-0.02 -4.12,-0.02 -0.4,0 -0.6,-0.17 -0.6,-0.52 0,-1.35 0.07,-3.37 0.22,-6.07 0.15,-2.7 0.23,-4.72 0.23,-6.07 0,-1.37 -0.07,-3.92 -0.22,-7.66 -0.04,-0.96 -0.1,-2.39 -0.2,-4.31 l -0.02,-0.25 c -0.02,-0.28 0.12,-0.41 0.45,-0.41 0.9,0 2.24,0.02 4.03,0.07 1.79,0.05 3.13,0.07 4.03,0.07 0.88,0 2.21,-0.02 3.98,-0.07 1.77,-0.04 3.1,-0.07 3.99,-0.07 0.62,0 0.99,0.23 1.09,0.7 0.06,0.28 0.15,1.11 0.28,2.52 0.12,1.4 0.19,2.25 0.19,2.55 0,0.25 -0.12,0.38 -0.36,0.38 -0.07,0 -0.2,-0.01 -0.38,-0.02 -3.22,-0.26 -6.1,-0.4 -8.66,-0.4 -0.64,0 -1.03,0.15 -1.17,0.46 -0.06,0.14 -0.09,0.6 -0.09,1.38 0,0.82 0.12,1.36 0.36,1.62 0.2,0.23 0.59,0.34 1.17,0.34 0.12,0 0.36,-0.01 0.7,-0.02 0.35,-0.02 0.64,-0.02 0.87,-0.02 1.52,0 3.06,-0.04 4.62,-0.13 0.14,-0.01 0.46,-0.04 1,-0.09 0.41,-0.04 0.74,-0.07 0.98,-0.07 0.29,0 0.44,0.14 0.44,0.41 0,-0.25 -0.11,0.67 -0.33,2.76 -0.1,0.97 -0.14,1.93 -0.14,2.89 0,0.24 -0.18,0.36 -0.53,0.36 0,0 -0.54,-0.06 -1.63,-0.18 -0.69,-0.07 -2.26,-0.1 -4.71,-0.1 h -1.92 c -0.49,0 -0.79,0.12 -0.87,0.36 -0.01,0.06 -0.02,0.44 -0.02,1.12 0,0.92 0.06,1.5 0.18,1.77 0.21,0.46 0.98,0.73 2.32,0.81 -0.02,0 0.86,0 2.65,0 0.64,0 1.59,-0.06 2.86,-0.17 1.26,-0.11 2.21,-0.17 2.83,-0.17 0.26,-0.01 0.4,0.21 0.4,0.64 z" id="path228" />
		<path class="st19" d="m 230,69.15 c 0,0.5 -0.1,1.41 -0.3,2.74 -0.21,1.45 -0.4,2.3 -0.56,2.58 -0.14,0.22 -0.34,0.33 -0.58,0.33 -0.1,0 -0.28,-0.02 -0.53,-0.05 -0.85,-0.11 -3.34,-0.17 -7.48,-0.17 -0.9,0 -2.24,-0.01 -4.02,-0.02 -1.77,-0.01 -3.11,-0.02 -4,-0.02 -0.39,0 -0.58,-0.17 -0.58,-0.5 0,-1.3 0.07,-3.24 0.22,-5.84 0.15,-2.59 0.22,-4.54 0.22,-5.84 0,-1.32 -0.07,-3.77 -0.21,-7.38 -0.04,-0.92 -0.1,-2.3 -0.19,-4.15 l -0.02,-0.24 c -0.02,-0.27 0.12,-0.4 0.44,-0.4 0.87,0 2.17,0.02 3.91,0.07 1.74,0.05 3.04,0.07 3.91,0.07 0.85,0 2.14,-0.02 3.86,-0.07 1.72,-0.04 3.01,-0.07 3.86,-0.07 0.6,0 0.96,0.23 1.05,0.68 0.05,0.27 0.14,1.07 0.27,2.42 0.12,1.34 0.19,2.16 0.19,2.45 0,0.24 -0.12,0.37 -0.35,0.37 -0.07,0 -0.19,-0.01 -0.37,-0.02 -3.12,-0.25 -5.91,-0.38 -8.4,-0.38 -0.62,0 -1,0.15 -1.14,0.44 -0.06,0.14 -0.09,0.58 -0.09,1.33 0,0.79 0.12,1.31 0.35,1.56 0.2,0.22 0.58,0.33 1.14,0.33 0.12,0 0.35,-0.01 0.68,-0.02 0.34,-0.02 0.62,-0.02 0.84,-0.02 1.47,0 2.97,-0.04 4.48,-0.12 0.13,-0.01 0.45,-0.04 0.96,-0.09 0.4,-0.04 0.71,-0.07 0.95,-0.07 0.28,0 0.43,0.13 0.43,0.4 0,-0.24 -0.11,0.65 -0.32,2.65 -0.1,0.93 -0.14,1.85 -0.14,2.78 0,0.23 -0.17,0.35 -0.51,0.35 0,0 -0.53,-0.06 -1.58,-0.18 -0.66,-0.07 -2.19,-0.1 -4.57,-0.1 h -1.86 c -0.48,0 -0.76,0.11 -0.84,0.34 -0.01,0.06 -0.02,0.42 -0.02,1.08 0,0.88 0.06,1.45 0.17,1.7 0.2,0.44 0.95,0.7 2.25,0.78 -0.02,0 0.83,0 2.56,0 0.62,0 1.54,-0.05 2.77,-0.17 1.22,-0.11 2.14,-0.17 2.74,-0.17 0.27,0.01 0.41,0.23 0.41,0.64 z" id="path230" />
		<path class="st19" d="m 249.34,55.86 c 0,0.12 -0.12,0.19 -0.35,0.19 -0.87,0 -2.2,-0.08 -3.99,-0.22 -1.79,-0.15 -3.12,-0.23 -4.01,-0.23 -1.12,0 -1.77,0.04 -1.97,0.12 -0.43,0.2 -0.65,0.75 -0.65,1.67 0,1.1 0.28,1.72 0.84,1.87 0.24,0.06 0.59,0.09 1.07,0.09 0.81,0 2.02,-0.05 3.62,-0.13 1.61,-0.09 2.82,-0.13 3.63,-0.13 0.39,0 0.58,1.02 0.58,3.05 0,1.77 -0.07,2.8 -0.19,3.09 -0.08,0.21 -0.24,0.31 -0.47,0.31 0.15,0 -0.22,-0.04 -1.11,-0.12 -1.25,-0.12 -3.15,-0.17 -5.69,-0.17 -0.82,0 -1.28,0.01 -1.39,0.02 -0.59,0.09 -0.89,0.34 -0.89,0.75 0,1.64 0.07,3.53 0.21,5.67 0.12,1.93 0.17,2.79 0.17,2.58 0,0.3 -0.37,0.47 -1.1,0.52 0.2,-0.01 -0.32,-0.02 -1.56,-0.02 -2.19,0 -3.6,-0.08 -4.23,-0.22 -0.34,-0.08 -0.51,-0.26 -0.51,-0.54 0,-1.29 0.04,-3.21 0.13,-5.79 0.09,-2.57 0.13,-4.5 0.13,-5.79 0,-1.53 -0.07,-3.45 -0.21,-5.76 -0.21,-3.57 -0.32,-5.49 -0.34,-5.76 l -0.02,-0.21 c -0.01,-0.29 0.17,-0.44 0.53,-0.44 0.87,0 2.18,0.02 3.92,0.05 1.75,0.04 3.06,0.05 3.94,0.05 0.93,0 2.34,-0.07 4.22,-0.21 1.88,-0.14 3.28,-0.21 4.22,-0.21 0.58,0 0.91,0.24 0.98,0.71 0,0.5 0.02,1.24 0.07,2.24 0.02,0.26 0.1,0.75 0.23,1.48 0.13,0.65 0.19,1.14 0.19,1.49 z" id="path232" />
		<g id="g238">
			<path class="st19" d="m 163.23,56.51 c -1.02,3.44 -0.74,6.99 0.83,10.53 1.62,3.66 4.06,6.22 7.27,7.62 3.28,1.44 6.74,1.34 10.28,-0.29 3.46,-1.6 5.7,-4.17 6.66,-7.65 0.06,-0.23 0.07,-0.37 0.07,-0.45 -0.17,-0.14 -0.65,-0.5 -2.06,-1.41 -1.44,-0.92 -2.07,-1.29 -2.34,-1.44 -0.07,0.14 -0.17,0.35 -0.31,0.66 -0.42,0.91 -0.89,1.68 -1.39,2.29 -0.78,0.97 -1.76,1.73 -2.89,2.25 -1.94,0.9 -3.86,0.86 -5.7,-0.12 -1.65,-0.88 -2.93,-2.33 -3.81,-4.31 -0.87,-1.96 -1.08,-3.88 -0.62,-5.71 0.51,-2.02 1.75,-3.5 3.69,-4.39 1.11,-0.51 2.31,-0.75 3.57,-0.69 0.85,0.05 1.74,0.23 2.68,0.53 0.38,0.12 0.62,0.19 0.77,0.23 0.06,-0.25 0.19,-0.96 0.37,-2.9 0.2,-2.11 0.17,-2.7 0.14,-2.85 -0.03,-0.03 -0.11,-0.11 -0.33,-0.2 -1.35,-0.58 -2.76,-0.87 -4.23,-0.87 -1.9,0 -3.89,0.48 -5.97,1.44 -3.38,1.56 -5.63,4.16 -6.68,7.73 z" id="path234" />
			<polygon class="st19" points="" id="polygon236" />
		</g>
		<g id="g244">
			<path class="st19" d="m 209.72,68.35 c -0.12,-2.52 -0.18,-4.41 -0.18,-5.67 0,-1.34 0.05,-3.35 0.16,-6.04 0.11,-2.69 0.17,-4.69 0.17,-6.02 0,-0.28 -0.17,-0.41 -0.51,-0.41 -0.35,0 -0.87,0.02 -1.57,0.05 -0.7,0.04 -1.21,0.05 -1.55,0.05 -0.35,0 -0.88,-0.02 -1.57,-0.05 -0.7,-0.03 -1.22,-0.05 -1.56,-0.05 -0.29,0 -0.44,0.18 -0.44,0.53 0,0.85 0.04,2.11 0.13,3.8 0.08,1.68 0.12,2.94 0.12,3.77 0,0.4 -0.14,0.64 -0.42,0.71 -0.4,0.09 -1.85,0.14 -4.36,0.14 -2.69,0 -4.19,-0.04 -4.49,-0.14 -0.22,-0.07 -0.33,-0.31 -0.33,-0.71 0,-0.87 0.06,-2.17 0.19,-3.9 0.13,-1.73 0.19,-3.03 0.19,-3.9 0,-0.21 -0.1,-0.31 -0.3,-0.31 -0.37,0 -0.93,0.02 -1.69,0.05 -0.76,0.04 -1.32,0.05 -1.7,0.05 -0.37,0 -0.91,-0.02 -1.64,-0.05 -0.73,-0.03 -1.28,-0.05 -1.64,-0.05 -0.25,0 -0.37,0.12 -0.37,0.38 0,1.34 0.06,3.36 0.18,6.05 0.11,2.69 0.17,4.71 0.17,6.05 0,0.28 0,0.59 -0.01,0.92 0.09,0.06 0.17,0.11 0.27,0.17 2.37,1.54 2.44,1.7 2.54,1.92 0.15,0.34 0.15,0.77 0,1.36 -0.6,2.19 -1.66,4.05 -3.14,5.58 -0.01,0.52 -0.02,0.99 -0.02,1.38 0,0.3 0.17,0.48 0.51,0.54 0.43,0.07 1.44,0.11 3.01,0.11 1.83,0 2.93,-0.04 3.3,-0.11 0.32,-0.06 0.47,-0.26 0.47,-0.61 0,-0.9 -0.03,-2.25 -0.08,-4.05 -0.06,-1.79 -0.09,-3.15 -0.09,-4.05 0,-0.46 0.13,-0.72 0.38,-0.78 0.41,-0.09 1.84,-0.14 4.28,-0.14 2.44,0 3.85,0.05 4.25,0.14 0.26,0.07 0.39,0.33 0.39,0.78 0,0.92 -0.05,2.29 -0.13,4.12 -0.09,1.84 -0.13,3.21 -0.13,4.12 0,0.24 0.16,0.4 0.48,0.47 0.32,0.07 1.4,0.11 3.24,0.11 1.3,0 2.31,-0.04 3.02,-0.11 0.28,-0.02 0.44,-0.05 0.49,-0.09 0.1,-0.05 0.16,-0.21 0.16,-0.45 0.01,-1.25 -0.05,-3.14 -0.18,-5.66 z" id="path240" />
			<polygon class="st19" points="" id="polygon242" />
		</g>
	</g>
</g>
</svg>
