<?xml version="1.0" encoding="UTF-8" standalone="no"?>
<svg viewBox="0 0 413.48231 318.06378" version="1.1" id="svg12124" sodipodi:docname="hr-logo.svg" inkscape:version="1.2 (dc2aedaf03, 2022-05-15)" width="413.4823" height="318.06378" xmlns:inkscape="http://www.inkscape.org/namespaces/inkscape" xmlns:sodipodi="http://sodipodi.sourceforge.net/DTD/sodipodi-0.dtd" xmlns="http://www.w3.org/2000/svg" xmlns:svg="http://www.w3.org/2000/svg">
 <defs id="defs12128" />
 <sodipodi:namedview id="namedview12126" pagecolor="#ffffff" bordercolor="#000000" borderopacity="0.25" inkscape:showpageshadow="2" inkscape:pageopacity="0" inkscape:pagecheckerboard="0" inkscape:deskcolor="#d1d1d1" showgrid="false" inkscape:zoom="0.81744735" inkscape:cx="611.04853" inkscape:cy="156.58501" inkscape:window-width="1920" inkscape:window-height="1012" inkscape:window-x="-8" inkscape:window-y="-8" inkscape:window-maximized="1" inkscape:current-layer="svg12124" />
 <rect style="fill:#000000;fill-opacity:1;stroke-width:0;stroke-dasharray:none" id="rect13494" width="413.4823" height="318.06378" x="0" y="0" rx="42.106319" ry="42.106319" />
 <path id="path12120" d="m 53.255742,56.272728 c -1.7,0 -3.09961,1.39961 -3.09961,3.09961 V 255.97195 c 0,1.7 1.39961,3.10156 3.09961,3.10156 h 44.20117 c 1.7,0 3.099608,-1.40156 3.099608,-3.10156 v -78.89844 h 47.40039 v 78.89844 c 0,1.7 1.39961,3.10156 3.09961,3.10156 h 44.4004 c 1.7,0 3.09961,-1.40156 3.09961,-3.10156 V 59.372338 c 0,-1.7 -1.39961,-3.09961 -3.09961,-3.09961 h -44.30079 c -1.7,0 -3.09961,1.39961 -3.09961,3.09961 V 131.87234 H 100.65613 V 59.372338 c 0,-1.7 -1.399608,-3.09961 -3.099608,-3.09961 z" style="fill:#ffffff;fill-opacity:1" />
 <path fill="#2ec866" d="m 363.27984,258.62609 c 1.7,0 3.1,-1.4 3.1,-3.1 V 58.926092 c 0,-1.7 -1.4,-3.1 -3.1,-3.1 h -142.3 c -1.7,0 -3.1,1.4 -3.1,3.1 V 255.52609 c 0,1.7 1.4,3.1 3.1,3.1 z" id="path12122" />
</svg>
