<?xml version="1.0" encoding="UTF-8" standalone="no"?>
<!-- Created with Inkscape (http://www.inkscape.org/) -->

<svg
   width="10.430264mm"
   height="6.0378265mm"
   viewBox="0 0 10.430264 6.0378265"
   version="1.1"
   id="svg5"
   inkscape:version="1.2 (dc2aedaf03, 2022-05-15)"
   sodipodi:docname="icons.svg"
   xmlns:inkscape="http://www.inkscape.org/namespaces/inkscape"
   xmlns:sodipodi="http://sodipodi.sourceforge.net/DTD/sodipodi-0.dtd"
   xmlns="http://www.w3.org/2000/svg"
   xmlns:svg="http://www.w3.org/2000/svg">
  <sodipodi:namedview
     id="namedview7"
     pagecolor="#ffffff"
     bordercolor="#000000"
     borderopacity="0.25"
     inkscape:showpageshadow="2"
     inkscape:pageopacity="0.0"
     inkscape:pagecheckerboard="0"
     inkscape:deskcolor="#d1d1d1"
     inkscape:document-units="mm"
     showgrid="false"
     inkscape:zoom="5.6568542"
     inkscape:cx="100.58594"
     inkscape:cy="587.78252"
     inkscape:window-width="1920"
     inkscape:window-height="1012"
     inkscape:window-x="-8"
     inkscape:window-y="-8"
     inkscape:window-maximized="1"
     inkscape:current-layer="layer1" />
  <defs
     id="defs2">
    <inkscape:path-effect
       effect="powerclip"
       id="path-effect7064"
       is_visible="true"
       lpeversion="1"
       inverse="true"
       flatten="false"
       hide_clip="false"
       message="Use fill-rule evenodd on &lt;b&gt;fill and stroke&lt;/b&gt; dialog if no flatten result after convert clip to paths." />
    <clipPath
       clipPathUnits="userSpaceOnUse"
       id="clipPath7060">
      <path
         id="path7062"
         style="display:none;opacity:1;fill:#000000;fill-opacity:1;fill-rule:nonzero;stroke:none;stroke-width:1.03839;stroke-dasharray:none;stroke-dashoffset:0;stroke-opacity:1;paint-order:normal"
         d="m 31.68437,154.96884 a 2.5016091,2.5016091 0 0 0 -2.501654,2.50113 2.5016091,2.5016091 0 0 0 2.501654,2.50166 2.5016091,2.5016091 0 0 0 2.501657,-2.50166 2.5016091,2.5016091 0 0 0 -2.501657,-2.50113 z m 0,0.84542 a 1.6560549,1.6560549 0 0 1 1.656231,1.65571 1.6560549,1.6560549 0 0 1 -1.656231,1.65623 1.6560549,1.6560549 0 0 1 -1.656228,-1.65623 1.6560549,1.6560549 0 0 1 1.656228,-1.65571 z" />
      <path
         id="lpe_path-effect7064"
         style="display:block;opacity:1;fill:#000000;fill-opacity:1;fill-rule:nonzero;stroke:none;stroke-width:1.03839;stroke-dasharray:none;stroke-dashoffset:0;stroke-opacity:1;paint-order:normal"
         class="powerclip"
         d="m 21.562069,149.4223 h 20.430264 v 16.03782 H 21.562069 Z m 10.122301,5.54654 a 2.5016091,2.5016091 0 0 0 -2.501654,2.50113 2.5016091,2.5016091 0 0 0 2.501654,2.50166 2.5016091,2.5016091 0 0 0 2.501657,-2.50166 2.5016091,2.5016091 0 0 0 -2.501657,-2.50113 z m 0,0.84542 a 1.6560549,1.6560549 0 0 0 -1.656228,1.65571 1.6560549,1.6560549 0 0 0 1.656228,1.65623 1.6560549,1.6560549 0 0 0 1.656231,-1.65623 1.6560549,1.6560549 0 0 0 -1.656231,-1.65571 z" />
    </clipPath>
  </defs>
  <g
     inkscape:label="Layer 1"
     inkscape:groupmode="layer"
     id="layer1"
     transform="translate(-26.141118,-154.51585)">
    <path
       style="fill:#ffffff;fill-opacity:1;stroke:#ffffff;stroke-width:0.465;stroke-dasharray:none;stroke-opacity:1"
       d="m 26.858681,157.43886 c 4.886003,-6.21354 9.839234,-0.0875 9.839234,-0.0875 0,0 -4.790481,6.41381 -9.839234,0.0875 z"
       id="path3119-3"
       clip-path="url(#clipPath7060)"
       inkscape:path-effect="#path-effect7064"
       inkscape:original-d="m 26.858681,157.43886 c 4.886003,-6.21354 9.839234,-0.0875 9.839234,-0.0875 0,0 -4.790481,6.41381 -9.839234,0.0875 z"
       transform="translate(-0.42094955,0.09354431)" />
  </g>
</svg>
